{
	"patcher" : 	{
		"fileversion" : 1,
		"appversion" : 		{
			"major" : 5,
			"minor" : 1,
			"revision" : 9
		}
,
		"rect" : [ 4.0, 45.0, 1276.0, 729.0 ],
		"bglocked" : 0,
		"defrect" : [ 4.0, 45.0, 1276.0, 729.0 ],
		"openrect" : [ 0.0, 0.0, 0.0, 0.0 ],
		"openinpresentation" : 0,
		"default_fontsize" : 12.0,
		"default_fontface" : 0,
		"default_fontname" : "Arial",
		"gridonopen" : 0,
		"gridsize" : [ 15.0, 15.0 ],
		"gridsnaponopen" : 0,
		"toolbarvisible" : 1,
		"boxanimatetime" : 200,
		"imprint" : 0,
		"enablehscroll" : 1,
		"enablevscroll" : 1,
		"devicewidth" : 0.0,
		"boxes" : [ 			{
				"box" : 				{
					"maxclass" : "newobj",
					"text" : "standalone",
					"patching_rect" : [ 318.0, 63.0, 69.0, 20.0 ],
					"id" : "obj-3",
					"fontname" : "Arial",
					"fontsize" : 12.0,
					"numinlets" : 1,
					"numoutlets" : 0,
					"saved_object_attributes" : 					{
						"searchformissingfiles" : 1,
						"overdrive" : 0,
						"noloadbangdefeating" : 0,
						"cantclosetoplevelpatchers" : 1,
						"extensions" : 1,
						"midisupport" : 0,
						"preffilename" : "Max 5 Preferences",
						"statusvisible" : 1,
						"usesearchpath" : 0,
						"allwindowsactive" : 0,
						"audiosupport" : 1
					}

				}

			}
, 			{
				"box" : 				{
					"maxclass" : "umenu",
					"types" : [  ],
					"patching_rect" : [ 324.0, 105.0, 100.0, 18.0 ],
					"outlettype" : [ "int", "", "" ],
					"id" : "obj-55",
					"fontname" : "Arial",
					"fontsize" : 10.0,
					"numinlets" : 1,
					"items" : [ "baud", 9600, ",", "baud", 57600, ",", "baud", 115200 ],
					"numoutlets" : 3
				}

			}
, 			{
				"box" : 				{
					"maxclass" : "newobj",
					"text" : "loadbang",
					"patching_rect" : [ 66.0, 81.0, 52.0, 16.0 ],
					"outlettype" : [ "bang" ],
					"id" : "obj-54",
					"fontname" : "Helvetica",
					"fontsize" : 10.0,
					"numinlets" : 1,
					"numoutlets" : 1
				}

			}
, 			{
				"box" : 				{
					"maxclass" : "toggle",
					"patching_rect" : [ 65.0, 100.0, 20.0, 20.0 ],
					"outlettype" : [ "int" ],
					"id" : "obj-53",
					"numinlets" : 1,
					"numoutlets" : 1
				}

			}
, 			{
				"box" : 				{
					"maxclass" : "newobj",
					"text" : "t s s close",
					"patching_rect" : [ 332.0, 160.0, 55.0, 18.0 ],
					"outlettype" : [ "", "", "close" ],
					"id" : "obj-28",
					"fontname" : "Arial",
					"fontsize" : 10.0,
					"numinlets" : 1,
					"numoutlets" : 3
				}

			}
, 			{
				"box" : 				{
					"maxclass" : "newobj",
					"text" : "thru",
					"patching_rect" : [ 332.0, 203.0, 28.0, 18.0 ],
					"outlettype" : [ "" ],
					"id" : "obj-90",
					"fontname" : "Arial",
					"color" : [ 0.72549, 0.72549, 0.72549, 1.0 ],
					"fontsize" : 10.0,
					"numinlets" : 1,
					"numoutlets" : 1
				}

			}
, 			{
				"box" : 				{
					"maxclass" : "newobj",
					"text" : "prepend port",
					"patching_rect" : [ 332.0, 182.0, 67.0, 18.0 ],
					"outlettype" : [ "" ],
					"id" : "obj-91",
					"fontname" : "Arial",
					"fontsize" : 10.0,
					"numinlets" : 1,
					"numoutlets" : 1
				}

			}
, 			{
				"box" : 				{
					"maxclass" : "newobj",
					"text" : "iter",
					"patching_rect" : [ 235.0, 80.0, 24.0, 18.0 ],
					"outlettype" : [ "" ],
					"id" : "obj-92",
					"fontname" : "Arial",
					"fontsize" : 10.0,
					"numinlets" : 1,
					"numoutlets" : 1
				}

			}
, 			{
				"box" : 				{
					"maxclass" : "newobj",
					"text" : "prepend append",
					"patching_rect" : [ 235.0, 105.0, 83.0, 18.0 ],
					"outlettype" : [ "" ],
					"id" : "obj-93",
					"fontname" : "Arial",
					"fontsize" : 10.0,
					"numinlets" : 1,
					"numoutlets" : 1
				}

			}
, 			{
				"box" : 				{
					"maxclass" : "umenu",
					"types" : [  ],
					"patching_rect" : [ 234.0, 136.0, 215.0, 18.0 ],
					"outlettype" : [ "int", "", "" ],
					"id" : "obj-94",
					"fontname" : "Arial",
					"fontsize" : 10.0,
					"numinlets" : 1,
					"items" : [ "Bluetooth-Incoming-Port", ",", "BTUART-DevB", ",", "HC-06-DevB" ],
					"numoutlets" : 3
				}

			}
, 			{
				"box" : 				{
					"maxclass" : "newobj",
					"text" : "t l clear",
					"patching_rect" : [ 235.0, 56.0, 43.0, 18.0 ],
					"outlettype" : [ "", "clear" ],
					"id" : "obj-30",
					"fontname" : "Arial",
					"fontsize" : 10.0,
					"numinlets" : 1,
					"numoutlets" : 2
				}

			}
, 			{
				"box" : 				{
					"maxclass" : "newobj",
					"text" : "serial a 9600",
					"patching_rect" : [ 63.0, 146.0, 68.0, 18.0 ],
					"outlettype" : [ "int", "" ],
					"id" : "obj-37",
					"fontname" : "Arial",
					"fontsize" : 10.0,
					"numinlets" : 1,
					"numoutlets" : 2
				}

			}
, 			{
				"box" : 				{
					"maxclass" : "newobj",
					"text" : "freebang",
					"patching_rect" : [ 175.0, 107.0, 50.0, 18.0 ],
					"outlettype" : [ "bang" ],
					"id" : "obj-2",
					"fontname" : "Arial",
					"fontsize" : 10.0,
					"numinlets" : 0,
					"numoutlets" : 1
				}

			}
, 			{
				"box" : 				{
					"maxclass" : "newobj",
					"text" : "loadbang",
					"patching_rect" : [ 116.0, 36.0, 52.0, 18.0 ],
					"outlettype" : [ "bang" ],
					"id" : "obj-26",
					"fontname" : "Arial",
					"fontsize" : 10.0,
					"numinlets" : 1,
					"numoutlets" : 1
				}

			}
, 			{
				"box" : 				{
					"maxclass" : "textbutton",
					"patching_rect" : [ 116.0, 60.0, 84.0, 26.0 ],
					"outlettype" : [ "", "", "int" ],
					"id" : "obj-33",
					"fontname" : "Arial",
					"text" : "Update Serial",
					"fontsize" : 10.0,
					"numinlets" : 1,
					"numoutlets" : 3
				}

			}
, 			{
				"box" : 				{
					"maxclass" : "newobj",
					"text" : "t print",
					"patching_rect" : [ 116.0, 94.0, 36.0, 18.0 ],
					"outlettype" : [ "print" ],
					"id" : "obj-11",
					"fontname" : "Arial",
					"fontsize" : 10.0,
					"numinlets" : 1,
					"numoutlets" : 1
				}

			}
, 			{
				"box" : 				{
					"maxclass" : "newobj",
					"text" : "route read write port",
					"patching_rect" : [ 124.0, 163.0, 100.0, 18.0 ],
					"outlettype" : [ "", "", "", "" ],
					"id" : "obj-35",
					"fontname" : "Arial",
					"fontsize" : 10.0,
					"numinlets" : 1,
					"numoutlets" : 4
				}

			}
, 			{
				"box" : 				{
					"maxclass" : "message",
					"text" : "close",
					"patching_rect" : [ 274.0, 159.0, 34.0, 16.0 ],
					"outlettype" : [ "" ],
					"id" : "obj-50",
					"fontname" : "Arial",
					"fontsize" : 10.0,
					"numinlets" : 2,
					"numoutlets" : 1
				}

			}
, 			{
				"box" : 				{
					"maxclass" : "message",
					"text" : "open",
					"patching_rect" : [ 234.0, 160.0, 33.0, 16.0 ],
					"outlettype" : [ "" ],
					"id" : "obj-51",
					"fontname" : "Arial",
					"fontsize" : 10.0,
					"numinlets" : 2,
					"numoutlets" : 1
				}

			}
, 			{
				"box" : 				{
					"maxclass" : "newobj",
					"text" : "t 1.",
					"patching_rect" : [ 1161.0, 536.0, 24.0, 18.0 ],
					"outlettype" : [ "float" ],
					"id" : "obj-48",
					"fontname" : "Arial",
					"fontsize" : 10.0,
					"numinlets" : 1,
					"numoutlets" : 1
				}

			}
, 			{
				"box" : 				{
					"maxclass" : "newobj",
					"text" : "loadbang",
					"patching_rect" : [ 1183.0, 536.0, 52.0, 18.0 ],
					"outlettype" : [ "bang" ],
					"id" : "obj-49",
					"fontname" : "Arial",
					"fontsize" : 10.0,
					"numinlets" : 1,
					"numoutlets" : 1
				}

			}
, 			{
				"box" : 				{
					"maxclass" : "newobj",
					"text" : "t 1.",
					"patching_rect" : [ 1039.0, 535.0, 24.0, 18.0 ],
					"outlettype" : [ "float" ],
					"id" : "obj-46",
					"fontname" : "Arial",
					"fontsize" : 10.0,
					"numinlets" : 1,
					"numoutlets" : 1
				}

			}
, 			{
				"box" : 				{
					"maxclass" : "newobj",
					"text" : "loadbang",
					"patching_rect" : [ 1061.0, 535.0, 52.0, 18.0 ],
					"outlettype" : [ "bang" ],
					"id" : "obj-47",
					"fontname" : "Arial",
					"fontsize" : 10.0,
					"numinlets" : 1,
					"numoutlets" : 1
				}

			}
, 			{
				"box" : 				{
					"maxclass" : "newobj",
					"text" : "t 1.",
					"patching_rect" : [ 1146.0, 344.0, 24.0, 18.0 ],
					"outlettype" : [ "float" ],
					"id" : "obj-39",
					"fontname" : "Arial",
					"fontsize" : 10.0,
					"numinlets" : 1,
					"numoutlets" : 1
				}

			}
, 			{
				"box" : 				{
					"maxclass" : "newobj",
					"text" : "loadbang",
					"patching_rect" : [ 1168.0, 344.0, 52.0, 18.0 ],
					"outlettype" : [ "bang" ],
					"id" : "obj-45",
					"fontname" : "Arial",
					"fontsize" : 10.0,
					"numinlets" : 1,
					"numoutlets" : 1
				}

			}
, 			{
				"box" : 				{
					"maxclass" : "newobj",
					"text" : "t 1.",
					"patching_rect" : [ 1021.0, 342.0, 24.0, 18.0 ],
					"outlettype" : [ "float" ],
					"id" : "obj-36",
					"fontname" : "Arial",
					"fontsize" : 10.0,
					"numinlets" : 1,
					"numoutlets" : 1
				}

			}
, 			{
				"box" : 				{
					"maxclass" : "newobj",
					"text" : "loadbang",
					"patching_rect" : [ 1043.0, 342.0, 52.0, 18.0 ],
					"outlettype" : [ "bang" ],
					"id" : "obj-38",
					"fontname" : "Arial",
					"fontsize" : 10.0,
					"numinlets" : 1,
					"numoutlets" : 1
				}

			}
, 			{
				"box" : 				{
					"maxclass" : "newobj",
					"text" : "t 1.",
					"patching_rect" : [ 902.0, 340.0, 24.0, 18.0 ],
					"outlettype" : [ "float" ],
					"id" : "obj-32",
					"fontname" : "Arial",
					"fontsize" : 10.0,
					"numinlets" : 1,
					"numoutlets" : 1
				}

			}
, 			{
				"box" : 				{
					"maxclass" : "newobj",
					"text" : "loadbang",
					"patching_rect" : [ 924.0, 340.0, 52.0, 18.0 ],
					"outlettype" : [ "bang" ],
					"id" : "obj-34",
					"fontname" : "Arial",
					"fontsize" : 10.0,
					"numinlets" : 1,
					"numoutlets" : 1
				}

			}
, 			{
				"box" : 				{
					"maxclass" : "newobj",
					"text" : "t 1.",
					"patching_rect" : [ 782.0, 342.0, 24.0, 18.0 ],
					"outlettype" : [ "float" ],
					"id" : "obj-24",
					"fontname" : "Arial",
					"fontsize" : 10.0,
					"numinlets" : 1,
					"numoutlets" : 1
				}

			}
, 			{
				"box" : 				{
					"maxclass" : "newobj",
					"text" : "loadbang",
					"patching_rect" : [ 804.0, 342.0, 52.0, 18.0 ],
					"outlettype" : [ "bang" ],
					"id" : "obj-25",
					"fontname" : "Arial",
					"fontsize" : 10.0,
					"numinlets" : 1,
					"numoutlets" : 1
				}

			}
, 			{
				"box" : 				{
					"maxclass" : "newobj",
					"text" : "t 1.",
					"patching_rect" : [ 657.0, 343.0, 24.0, 18.0 ],
					"outlettype" : [ "float" ],
					"id" : "obj-22",
					"fontname" : "Arial",
					"fontsize" : 10.0,
					"numinlets" : 1,
					"numoutlets" : 1
				}

			}
, 			{
				"box" : 				{
					"maxclass" : "newobj",
					"text" : "loadbang",
					"patching_rect" : [ 679.0, 343.0, 52.0, 18.0 ],
					"outlettype" : [ "bang" ],
					"id" : "obj-23",
					"fontname" : "Arial",
					"fontsize" : 10.0,
					"numinlets" : 1,
					"numoutlets" : 1
				}

			}
, 			{
				"box" : 				{
					"maxclass" : "newobj",
					"text" : "t 1.",
					"patching_rect" : [ 532.0, 346.0, 24.0, 18.0 ],
					"outlettype" : [ "float" ],
					"id" : "obj-21",
					"fontname" : "Arial",
					"fontsize" : 10.0,
					"numinlets" : 1,
					"numoutlets" : 1
				}

			}
, 			{
				"box" : 				{
					"maxclass" : "newobj",
					"text" : "sel 1",
					"patching_rect" : [ 1111.0, 512.0, 36.0, 20.0 ],
					"outlettype" : [ "bang", "" ],
					"id" : "obj-20",
					"fontname" : "Arial",
					"fontsize" : 12.0,
					"numinlets" : 2,
					"numoutlets" : 2
				}

			}
, 			{
				"box" : 				{
					"maxclass" : "newobj",
					"text" : "sel 1",
					"patching_rect" : [ 994.0, 510.0, 36.0, 20.0 ],
					"outlettype" : [ "bang", "" ],
					"id" : "obj-19",
					"fontname" : "Arial",
					"fontsize" : 12.0,
					"numinlets" : 2,
					"numoutlets" : 2
				}

			}
, 			{
				"box" : 				{
					"maxclass" : "newobj",
					"text" : "sel 1",
					"patching_rect" : [ 1096.0, 318.0, 36.0, 20.0 ],
					"outlettype" : [ "bang", "" ],
					"id" : "obj-18",
					"fontname" : "Arial",
					"fontsize" : 12.0,
					"numinlets" : 2,
					"numoutlets" : 2
				}

			}
, 			{
				"box" : 				{
					"maxclass" : "newobj",
					"text" : "sel 1",
					"patching_rect" : [ 975.0, 315.0, 36.0, 20.0 ],
					"outlettype" : [ "bang", "" ],
					"id" : "obj-17",
					"fontname" : "Arial",
					"fontsize" : 12.0,
					"numinlets" : 2,
					"numoutlets" : 2
				}

			}
, 			{
				"box" : 				{
					"maxclass" : "button",
					"patching_rect" : [ 102.0, 164.0, 20.0, 20.0 ],
					"outlettype" : [ "bang" ],
					"id" : "obj-324",
					"numinlets" : 1,
					"numoutlets" : 1
				}

			}
, 			{
				"box" : 				{
					"maxclass" : "newobj",
					"text" : "s message8",
					"patching_rect" : [ 345.0, 567.0, 64.0, 18.0 ],
					"id" : "obj-303",
					"fontname" : "Arial",
					"fontsize" : 10.0,
					"numinlets" : 1,
					"numoutlets" : 0
				}

			}
, 			{
				"box" : 				{
					"maxclass" : "newobj",
					"text" : "s message6",
					"patching_rect" : [ 258.0, 569.0, 64.0, 18.0 ],
					"id" : "obj-304",
					"fontname" : "Arial",
					"fontsize" : 10.0,
					"numinlets" : 1,
					"numoutlets" : 0
				}

			}
, 			{
				"box" : 				{
					"maxclass" : "newobj",
					"text" : "s message4",
					"patching_rect" : [ 171.0, 569.0, 64.0, 18.0 ],
					"id" : "obj-305",
					"fontname" : "Arial",
					"fontsize" : 10.0,
					"numinlets" : 1,
					"numoutlets" : 0
				}

			}
, 			{
				"box" : 				{
					"maxclass" : "newobj",
					"text" : "s message2",
					"patching_rect" : [ 83.0, 570.0, 64.0, 18.0 ],
					"id" : "obj-306",
					"fontname" : "Arial",
					"fontsize" : 10.0,
					"numinlets" : 1,
					"numoutlets" : 0
				}

			}
, 			{
				"box" : 				{
					"maxclass" : "comment",
					"text" : "message id 8",
					"patching_rect" : [ 344.602875, 592.136108, 81.0, 18.0 ],
					"id" : "obj-307",
					"fontname" : "Arial",
					"fontsize" : 10.0,
					"numinlets" : 1,
					"numoutlets" : 0
				}

			}
, 			{
				"box" : 				{
					"maxclass" : "comment",
					"text" : "message id 6",
					"patching_rect" : [ 257.602875, 593.136108, 81.0, 18.0 ],
					"id" : "obj-308",
					"fontname" : "Arial",
					"fontsize" : 10.0,
					"numinlets" : 1,
					"numoutlets" : 0
				}

			}
, 			{
				"box" : 				{
					"maxclass" : "newobj",
					"text" : "fromsymbol",
					"patching_rect" : [ 344.602875, 521.333374, 62.0, 18.0 ],
					"outlettype" : [ "" ],
					"id" : "obj-309",
					"fontname" : "Arial",
					"fontsize" : 10.0,
					"numinlets" : 1,
					"numoutlets" : 1
				}

			}
, 			{
				"box" : 				{
					"maxclass" : "number",
					"patching_rect" : [ 344.602875, 544.333374, 48.0, 18.0 ],
					"outlettype" : [ "int", "bang" ],
					"id" : "obj-310",
					"fontname" : "Arial",
					"fontsize" : 10.0,
					"numinlets" : 1,
					"numoutlets" : 2
				}

			}
, 			{
				"box" : 				{
					"maxclass" : "newobj",
					"text" : "itoa",
					"patching_rect" : [ 344.602875, 498.333344, 42.0, 18.0 ],
					"outlettype" : [ "int" ],
					"id" : "obj-311",
					"fontname" : "Arial",
					"fontsize" : 10.0,
					"numinlets" : 3,
					"numoutlets" : 1
				}

			}
, 			{
				"box" : 				{
					"maxclass" : "newobj",
					"text" : "fromsymbol",
					"patching_rect" : [ 257.602875, 523.190918, 62.0, 18.0 ],
					"outlettype" : [ "" ],
					"id" : "obj-312",
					"fontname" : "Arial",
					"fontsize" : 10.0,
					"numinlets" : 1,
					"numoutlets" : 1
				}

			}
, 			{
				"box" : 				{
					"maxclass" : "number",
					"patching_rect" : [ 257.602875, 546.789429, 48.0, 18.0 ],
					"outlettype" : [ "int", "bang" ],
					"id" : "obj-313",
					"fontname" : "Arial",
					"fontsize" : 10.0,
					"numinlets" : 1,
					"numoutlets" : 2
				}

			}
, 			{
				"box" : 				{
					"maxclass" : "newobj",
					"text" : "itoa",
					"patching_rect" : [ 257.602875, 499.962494, 42.0, 18.0 ],
					"outlettype" : [ "int" ],
					"id" : "obj-314",
					"fontname" : "Arial",
					"fontsize" : 10.0,
					"numinlets" : 3,
					"numoutlets" : 1
				}

			}
, 			{
				"box" : 				{
					"maxclass" : "number",
					"patching_rect" : [ 85.167671, 548.0, 48.0, 18.0 ],
					"outlettype" : [ "int", "bang" ],
					"id" : "obj-315",
					"fontname" : "Arial",
					"fontsize" : 10.0,
					"numinlets" : 1,
					"numoutlets" : 2
				}

			}
, 			{
				"box" : 				{
					"maxclass" : "comment",
					"text" : "message id 4",
					"patching_rect" : [ 171.602875, 593.136108, 81.0, 18.0 ],
					"id" : "obj-316",
					"fontname" : "Arial",
					"fontsize" : 10.0,
					"numinlets" : 1,
					"numoutlets" : 0
				}

			}
, 			{
				"box" : 				{
					"maxclass" : "comment",
					"text" : "message id 2",
					"patching_rect" : [ 85.167671, 593.136108, 81.0, 18.0 ],
					"id" : "obj-317",
					"fontname" : "Arial",
					"fontsize" : 10.0,
					"numinlets" : 1,
					"numoutlets" : 0
				}

			}
, 			{
				"box" : 				{
					"maxclass" : "newobj",
					"text" : "fromsymbol",
					"patching_rect" : [ 171.602875, 522.333374, 62.0, 18.0 ],
					"outlettype" : [ "" ],
					"id" : "obj-318",
					"fontname" : "Arial",
					"fontsize" : 10.0,
					"numinlets" : 1,
					"numoutlets" : 1
				}

			}
, 			{
				"box" : 				{
					"maxclass" : "number",
					"patching_rect" : [ 171.602875, 545.333374, 48.0, 18.0 ],
					"outlettype" : [ "int", "bang" ],
					"id" : "obj-319",
					"fontname" : "Arial",
					"fontsize" : 10.0,
					"numinlets" : 1,
					"numoutlets" : 2
				}

			}
, 			{
				"box" : 				{
					"maxclass" : "newobj",
					"text" : "itoa",
					"patching_rect" : [ 171.602875, 499.333344, 42.0, 18.0 ],
					"outlettype" : [ "int" ],
					"id" : "obj-320",
					"fontname" : "Arial",
					"fontsize" : 10.0,
					"numinlets" : 3,
					"numoutlets" : 1
				}

			}
, 			{
				"box" : 				{
					"maxclass" : "newobj",
					"text" : "fromsymbol",
					"patching_rect" : [ 85.167671, 523.190918, 62.0, 18.0 ],
					"outlettype" : [ "" ],
					"id" : "obj-321",
					"fontname" : "Arial",
					"fontsize" : 10.0,
					"numinlets" : 1,
					"numoutlets" : 1
				}

			}
, 			{
				"box" : 				{
					"maxclass" : "newobj",
					"text" : "itoa",
					"patching_rect" : [ 85.167671, 499.962494, 42.0, 18.0 ],
					"outlettype" : [ "int" ],
					"id" : "obj-322",
					"fontname" : "Arial",
					"fontsize" : 10.0,
					"numinlets" : 3,
					"numoutlets" : 1
				}

			}
, 			{
				"box" : 				{
					"maxclass" : "toggle",
					"patching_rect" : [ 1159.0, 487.0, 20.0, 20.0 ],
					"outlettype" : [ "int" ],
					"id" : "obj-302",
					"numinlets" : 1,
					"numoutlets" : 1
				}

			}
, 			{
				"box" : 				{
					"maxclass" : "toggle",
					"patching_rect" : [ 1039.0, 486.0, 20.0, 20.0 ],
					"outlettype" : [ "int" ],
					"id" : "obj-300",
					"numinlets" : 1,
					"numoutlets" : 1
				}

			}
, 			{
				"box" : 				{
					"maxclass" : "toggle",
					"patching_rect" : [ 1143.0, 292.0, 20.0, 20.0 ],
					"outlettype" : [ "int" ],
					"id" : "obj-298",
					"numinlets" : 1,
					"numoutlets" : 1
				}

			}
, 			{
				"box" : 				{
					"maxclass" : "toggle",
					"patching_rect" : [ 1024.0, 292.0, 20.0, 20.0 ],
					"outlettype" : [ "int" ],
					"id" : "obj-296",
					"numinlets" : 1,
					"numoutlets" : 1
				}

			}
, 			{
				"box" : 				{
					"maxclass" : "toggle",
					"patching_rect" : [ 897.0, 292.0, 20.0, 20.0 ],
					"outlettype" : [ "int" ],
					"id" : "obj-294",
					"numinlets" : 1,
					"numoutlets" : 1
				}

			}
, 			{
				"box" : 				{
					"maxclass" : "toggle",
					"patching_rect" : [ 776.0, 290.0, 20.0, 20.0 ],
					"outlettype" : [ "int" ],
					"id" : "obj-292",
					"numinlets" : 1,
					"numoutlets" : 1
				}

			}
, 			{
				"box" : 				{
					"maxclass" : "toggle",
					"patching_rect" : [ 655.0, 291.0, 20.0, 20.0 ],
					"outlettype" : [ "int" ],
					"id" : "obj-290",
					"numinlets" : 1,
					"numoutlets" : 1
				}

			}
, 			{
				"box" : 				{
					"maxclass" : "toggle",
					"patching_rect" : [ 530.0, 292.0, 20.0, 20.0 ],
					"outlettype" : [ "int" ],
					"id" : "obj-288",
					"numinlets" : 1,
					"numoutlets" : 1
				}

			}
, 			{
				"box" : 				{
					"maxclass" : "newobj",
					"text" : "r message8",
					"patching_rect" : [ 1111.0, 468.0, 63.0, 18.0 ],
					"outlettype" : [ "" ],
					"id" : "obj-267",
					"fontname" : "Arial",
					"fontsize" : 10.0,
					"numinlets" : 0,
					"numoutlets" : 1
				}

			}
, 			{
				"box" : 				{
					"maxclass" : "newobj",
					"text" : "sel 0",
					"patching_rect" : [ 1148.0, 512.0, 36.0, 20.0 ],
					"outlettype" : [ "bang", "" ],
					"id" : "obj-268",
					"fontname" : "Arial",
					"fontsize" : 12.0,
					"numinlets" : 2,
					"numoutlets" : 2
				}

			}
, 			{
				"box" : 				{
					"maxclass" : "button",
					"patching_rect" : [ 1131.0, 560.0, 19.0, 19.0 ],
					"outlettype" : [ "bang" ],
					"id" : "obj-270",
					"numinlets" : 1,
					"numoutlets" : 1
				}

			}
, 			{
				"box" : 				{
					"maxclass" : "message",
					"text" : "startloop",
					"patching_rect" : [ 1112.0, 580.0, 50.0, 16.0 ],
					"outlettype" : [ "" ],
					"id" : "obj-271",
					"fontname" : "Arial",
					"fontsize" : 10.0,
					"numinlets" : 2,
					"numoutlets" : 1
				}

			}
, 			{
				"box" : 				{
					"maxclass" : "flonum",
					"patching_rect" : [ 1162.0, 557.0, 53.0, 18.0 ],
					"outlettype" : [ "float", "bang" ],
					"id" : "obj-272",
					"fontname" : "Arial",
					"fontsize" : 10.0,
					"minimum" : 0.0,
					"numinlets" : 1,
					"maximum" : 2.0,
					"numoutlets" : 2
				}

			}
, 			{
				"box" : 				{
					"maxclass" : "newobj",
					"text" : "sig~",
					"patching_rect" : [ 1162.0, 579.0, 30.0, 18.0 ],
					"outlettype" : [ "signal" ],
					"id" : "obj-273",
					"fontname" : "Arial",
					"fontsize" : 10.0,
					"numinlets" : 1,
					"numoutlets" : 1
				}

			}
, 			{
				"box" : 				{
					"maxclass" : "meter~",
					"patching_rect" : [ 1174.0, 624.0, 71.0, 12.0 ],
					"outlettype" : [ "float" ],
					"id" : "obj-274",
					"numinlets" : 1,
					"numoutlets" : 1
				}

			}
, 			{
				"box" : 				{
					"maxclass" : "newobj",
					"text" : "groove~ sound8",
					"patching_rect" : [ 1162.0, 604.0, 83.0, 18.0 ],
					"outlettype" : [ "signal", "signal" ],
					"id" : "obj-275",
					"fontname" : "Arial",
					"fontsize" : 10.0,
					"numinlets" : 3,
					"numoutlets" : 2
				}

			}
, 			{
				"box" : 				{
					"maxclass" : "newobj",
					"text" : "onebang",
					"patching_rect" : [ 1111.0, 536.0, 49.0, 18.0 ],
					"outlettype" : [ "bang", "bang" ],
					"id" : "obj-276",
					"fontname" : "Arial",
					"fontsize" : 10.0,
					"numinlets" : 2,
					"numoutlets" : 2
				}

			}
, 			{
				"box" : 				{
					"maxclass" : "newobj",
					"text" : "r message7",
					"patching_rect" : [ 991.0, 468.0, 63.0, 18.0 ],
					"outlettype" : [ "" ],
					"id" : "obj-277",
					"fontname" : "Arial",
					"fontsize" : 10.0,
					"numinlets" : 0,
					"numoutlets" : 1
				}

			}
, 			{
				"box" : 				{
					"maxclass" : "newobj",
					"text" : "sel 0",
					"patching_rect" : [ 1028.0, 510.0, 36.0, 20.0 ],
					"outlettype" : [ "bang", "" ],
					"id" : "obj-278",
					"fontname" : "Arial",
					"fontsize" : 12.0,
					"numinlets" : 2,
					"numoutlets" : 2
				}

			}
, 			{
				"box" : 				{
					"maxclass" : "button",
					"patching_rect" : [ 1011.0, 558.0, 19.0, 19.0 ],
					"outlettype" : [ "bang" ],
					"id" : "obj-280",
					"numinlets" : 1,
					"numoutlets" : 1
				}

			}
, 			{
				"box" : 				{
					"maxclass" : "message",
					"text" : "startloop",
					"patching_rect" : [ 992.0, 578.0, 50.0, 16.0 ],
					"outlettype" : [ "" ],
					"id" : "obj-281",
					"fontname" : "Arial",
					"fontsize" : 10.0,
					"numinlets" : 2,
					"numoutlets" : 1
				}

			}
, 			{
				"box" : 				{
					"maxclass" : "flonum",
					"patching_rect" : [ 1042.0, 555.0, 53.0, 18.0 ],
					"outlettype" : [ "float", "bang" ],
					"id" : "obj-282",
					"fontname" : "Arial",
					"fontsize" : 10.0,
					"minimum" : 0.0,
					"numinlets" : 1,
					"maximum" : 2.0,
					"numoutlets" : 2
				}

			}
, 			{
				"box" : 				{
					"maxclass" : "newobj",
					"text" : "sig~",
					"patching_rect" : [ 1042.0, 577.0, 30.0, 18.0 ],
					"outlettype" : [ "signal" ],
					"id" : "obj-283",
					"fontname" : "Arial",
					"fontsize" : 10.0,
					"numinlets" : 1,
					"numoutlets" : 1
				}

			}
, 			{
				"box" : 				{
					"maxclass" : "meter~",
					"patching_rect" : [ 1054.0, 622.0, 71.0, 12.0 ],
					"outlettype" : [ "float" ],
					"id" : "obj-284",
					"numinlets" : 1,
					"numoutlets" : 1
				}

			}
, 			{
				"box" : 				{
					"maxclass" : "newobj",
					"text" : "groove~ sound7",
					"patching_rect" : [ 1042.0, 602.0, 83.0, 18.0 ],
					"outlettype" : [ "signal", "signal" ],
					"id" : "obj-285",
					"fontname" : "Arial",
					"fontsize" : 10.0,
					"numinlets" : 3,
					"numoutlets" : 2
				}

			}
, 			{
				"box" : 				{
					"maxclass" : "newobj",
					"text" : "onebang",
					"patching_rect" : [ 991.0, 534.0, 49.0, 18.0 ],
					"outlettype" : [ "bang", "bang" ],
					"id" : "obj-286",
					"fontname" : "Arial",
					"fontsize" : 10.0,
					"numinlets" : 2,
					"numoutlets" : 2
				}

			}
, 			{
				"box" : 				{
					"maxclass" : "comment",
					"text" : "load sound",
					"patching_rect" : [ 1059.0, 206.0, 77.0, 20.0 ],
					"id" : "obj-155",
					"fontname" : "Arial",
					"fontsize" : 12.0,
					"numinlets" : 1,
					"numoutlets" : 0
				}

			}
, 			{
				"box" : 				{
					"maxclass" : "message",
					"text" : "replace",
					"patching_rect" : [ 966.0, 181.0, 43.0, 16.0 ],
					"outlettype" : [ "" ],
					"id" : "obj-260",
					"fontname" : "Arial",
					"fontsize" : 10.0,
					"numinlets" : 2,
					"numoutlets" : 1
				}

			}
, 			{
				"box" : 				{
					"maxclass" : "message",
					"text" : "read",
					"patching_rect" : [ 966.0, 153.0, 32.5, 16.0 ],
					"outlettype" : [ "" ],
					"id" : "obj-261",
					"fontname" : "Arial",
					"fontsize" : 10.0,
					"numinlets" : 2,
					"numoutlets" : 1
				}

			}
, 			{
				"box" : 				{
					"maxclass" : "newobj",
					"text" : "buffer~ sound8 0",
					"patching_rect" : [ 1021.0, 152.0, 86.0, 18.0 ],
					"outlettype" : [ "float", "bang" ],
					"id" : "obj-262",
					"fontname" : "Arial",
					"fontsize" : 10.0,
					"numinlets" : 1,
					"numoutlets" : 2
				}

			}
, 			{
				"box" : 				{
					"maxclass" : "message",
					"text" : "replace",
					"patching_rect" : [ 966.0, 108.0, 43.0, 16.0 ],
					"outlettype" : [ "" ],
					"id" : "obj-264",
					"fontname" : "Arial",
					"fontsize" : 10.0,
					"numinlets" : 2,
					"numoutlets" : 1
				}

			}
, 			{
				"box" : 				{
					"maxclass" : "message",
					"text" : "read",
					"patching_rect" : [ 966.0, 80.0, 32.5, 16.0 ],
					"outlettype" : [ "" ],
					"id" : "obj-265",
					"fontname" : "Arial",
					"fontsize" : 10.0,
					"numinlets" : 2,
					"numoutlets" : 1
				}

			}
, 			{
				"box" : 				{
					"maxclass" : "newobj",
					"text" : "buffer~ sound7 0",
					"patching_rect" : [ 1018.0, 79.0, 86.0, 18.0 ],
					"outlettype" : [ "float", "bang" ],
					"id" : "obj-266",
					"fontname" : "Arial",
					"fontsize" : 10.0,
					"numinlets" : 1,
					"numoutlets" : 2
				}

			}
, 			{
				"box" : 				{
					"maxclass" : "message",
					"text" : "replace",
					"patching_rect" : [ 813.0, 183.0, 43.0, 16.0 ],
					"outlettype" : [ "" ],
					"id" : "obj-252",
					"fontname" : "Arial",
					"fontsize" : 10.0,
					"numinlets" : 2,
					"numoutlets" : 1
				}

			}
, 			{
				"box" : 				{
					"maxclass" : "message",
					"text" : "read",
					"patching_rect" : [ 813.0, 155.0, 32.5, 16.0 ],
					"outlettype" : [ "" ],
					"id" : "obj-253",
					"fontname" : "Arial",
					"fontsize" : 10.0,
					"numinlets" : 2,
					"numoutlets" : 1
				}

			}
, 			{
				"box" : 				{
					"maxclass" : "newobj",
					"text" : "buffer~ sound6 0",
					"patching_rect" : [ 870.0, 154.0, 86.0, 18.0 ],
					"outlettype" : [ "float", "bang" ],
					"id" : "obj-254",
					"fontname" : "Arial",
					"fontsize" : 10.0,
					"numinlets" : 1,
					"numoutlets" : 2
				}

			}
, 			{
				"box" : 				{
					"maxclass" : "message",
					"text" : "replace",
					"patching_rect" : [ 813.0, 110.0, 43.0, 16.0 ],
					"outlettype" : [ "" ],
					"id" : "obj-256",
					"fontname" : "Arial",
					"fontsize" : 10.0,
					"numinlets" : 2,
					"numoutlets" : 1
				}

			}
, 			{
				"box" : 				{
					"maxclass" : "message",
					"text" : "read",
					"patching_rect" : [ 813.0, 82.0, 32.5, 16.0 ],
					"outlettype" : [ "" ],
					"id" : "obj-257",
					"fontname" : "Arial",
					"fontsize" : 10.0,
					"numinlets" : 2,
					"numoutlets" : 1
				}

			}
, 			{
				"box" : 				{
					"maxclass" : "newobj",
					"text" : "buffer~ sound5 0",
					"patching_rect" : [ 867.0, 81.0, 86.0, 18.0 ],
					"outlettype" : [ "float", "bang" ],
					"id" : "obj-258",
					"fontname" : "Arial",
					"fontsize" : 10.0,
					"numinlets" : 1,
					"numoutlets" : 2
				}

			}
, 			{
				"box" : 				{
					"maxclass" : "newobj",
					"text" : "r message6",
					"patching_rect" : [ 1095.0, 274.0, 63.0, 18.0 ],
					"outlettype" : [ "" ],
					"id" : "obj-240",
					"fontname" : "Arial",
					"fontsize" : 10.0,
					"numinlets" : 0,
					"numoutlets" : 1
				}

			}
, 			{
				"box" : 				{
					"maxclass" : "newobj",
					"text" : "sel 0",
					"patching_rect" : [ 1132.0, 318.0, 36.0, 20.0 ],
					"outlettype" : [ "bang", "" ],
					"id" : "obj-241",
					"fontname" : "Arial",
					"fontsize" : 12.0,
					"numinlets" : 2,
					"numoutlets" : 2
				}

			}
, 			{
				"box" : 				{
					"maxclass" : "button",
					"patching_rect" : [ 1115.0, 366.0, 19.0, 19.0 ],
					"outlettype" : [ "bang" ],
					"id" : "obj-243",
					"numinlets" : 1,
					"numoutlets" : 1
				}

			}
, 			{
				"box" : 				{
					"maxclass" : "message",
					"text" : "startloop",
					"patching_rect" : [ 1096.0, 386.0, 50.0, 16.0 ],
					"outlettype" : [ "" ],
					"id" : "obj-244",
					"fontname" : "Arial",
					"fontsize" : 10.0,
					"numinlets" : 2,
					"numoutlets" : 1
				}

			}
, 			{
				"box" : 				{
					"maxclass" : "flonum",
					"patching_rect" : [ 1146.0, 363.0, 53.0, 18.0 ],
					"outlettype" : [ "float", "bang" ],
					"id" : "obj-245",
					"fontname" : "Arial",
					"fontsize" : 10.0,
					"minimum" : 0.0,
					"numinlets" : 1,
					"maximum" : 2.0,
					"numoutlets" : 2
				}

			}
, 			{
				"box" : 				{
					"maxclass" : "newobj",
					"text" : "sig~",
					"patching_rect" : [ 1146.0, 385.0, 30.0, 18.0 ],
					"outlettype" : [ "signal" ],
					"id" : "obj-246",
					"fontname" : "Arial",
					"fontsize" : 10.0,
					"numinlets" : 1,
					"numoutlets" : 1
				}

			}
, 			{
				"box" : 				{
					"maxclass" : "meter~",
					"patching_rect" : [ 1158.0, 430.0, 71.0, 12.0 ],
					"outlettype" : [ "float" ],
					"id" : "obj-247",
					"numinlets" : 1,
					"numoutlets" : 1
				}

			}
, 			{
				"box" : 				{
					"maxclass" : "newobj",
					"text" : "groove~ sound6",
					"patching_rect" : [ 1146.0, 410.0, 83.0, 18.0 ],
					"outlettype" : [ "signal", "signal" ],
					"id" : "obj-248",
					"fontname" : "Arial",
					"fontsize" : 10.0,
					"numinlets" : 3,
					"numoutlets" : 2
				}

			}
, 			{
				"box" : 				{
					"maxclass" : "newobj",
					"text" : "onebang",
					"patching_rect" : [ 1095.0, 342.0, 49.0, 18.0 ],
					"outlettype" : [ "bang", "bang" ],
					"id" : "obj-249",
					"fontname" : "Arial",
					"fontsize" : 10.0,
					"numinlets" : 2,
					"numoutlets" : 2
				}

			}
, 			{
				"box" : 				{
					"maxclass" : "newobj",
					"text" : "r message5",
					"patching_rect" : [ 975.0, 274.0, 63.0, 18.0 ],
					"outlettype" : [ "" ],
					"id" : "obj-230",
					"fontname" : "Arial",
					"fontsize" : 10.0,
					"numinlets" : 0,
					"numoutlets" : 1
				}

			}
, 			{
				"box" : 				{
					"maxclass" : "newobj",
					"text" : "sel 0",
					"patching_rect" : [ 1012.0, 316.0, 36.0, 20.0 ],
					"outlettype" : [ "bang", "" ],
					"id" : "obj-231",
					"fontname" : "Arial",
					"fontsize" : 12.0,
					"numinlets" : 2,
					"numoutlets" : 2
				}

			}
, 			{
				"box" : 				{
					"maxclass" : "button",
					"patching_rect" : [ 995.0, 364.0, 19.0, 19.0 ],
					"outlettype" : [ "bang" ],
					"id" : "obj-233",
					"numinlets" : 1,
					"numoutlets" : 1
				}

			}
, 			{
				"box" : 				{
					"maxclass" : "message",
					"text" : "startloop",
					"patching_rect" : [ 976.0, 384.0, 50.0, 16.0 ],
					"outlettype" : [ "" ],
					"id" : "obj-234",
					"fontname" : "Arial",
					"fontsize" : 10.0,
					"numinlets" : 2,
					"numoutlets" : 1
				}

			}
, 			{
				"box" : 				{
					"maxclass" : "flonum",
					"patching_rect" : [ 1026.0, 361.0, 53.0, 18.0 ],
					"outlettype" : [ "float", "bang" ],
					"id" : "obj-235",
					"fontname" : "Arial",
					"fontsize" : 10.0,
					"minimum" : 0.0,
					"numinlets" : 1,
					"maximum" : 2.0,
					"numoutlets" : 2
				}

			}
, 			{
				"box" : 				{
					"maxclass" : "newobj",
					"text" : "sig~",
					"patching_rect" : [ 1026.0, 383.0, 30.0, 18.0 ],
					"outlettype" : [ "signal" ],
					"id" : "obj-236",
					"fontname" : "Arial",
					"fontsize" : 10.0,
					"numinlets" : 1,
					"numoutlets" : 1
				}

			}
, 			{
				"box" : 				{
					"maxclass" : "meter~",
					"patching_rect" : [ 1038.0, 428.0, 71.0, 12.0 ],
					"outlettype" : [ "float" ],
					"id" : "obj-237",
					"numinlets" : 1,
					"numoutlets" : 1
				}

			}
, 			{
				"box" : 				{
					"maxclass" : "newobj",
					"text" : "groove~ sound5",
					"patching_rect" : [ 1026.0, 408.0, 83.0, 18.0 ],
					"outlettype" : [ "signal", "signal" ],
					"id" : "obj-238",
					"fontname" : "Arial",
					"fontsize" : 10.0,
					"numinlets" : 3,
					"numoutlets" : 2
				}

			}
, 			{
				"box" : 				{
					"maxclass" : "newobj",
					"text" : "onebang",
					"patching_rect" : [ 975.0, 340.0, 49.0, 18.0 ],
					"outlettype" : [ "bang", "bang" ],
					"id" : "obj-239",
					"fontname" : "Arial",
					"fontsize" : 10.0,
					"numinlets" : 2,
					"numoutlets" : 2
				}

			}
, 			{
				"box" : 				{
					"maxclass" : "newobj",
					"text" : "r message4",
					"patching_rect" : [ 851.0, 274.0, 63.0, 18.0 ],
					"outlettype" : [ "" ],
					"id" : "obj-219",
					"fontname" : "Arial",
					"fontsize" : 10.0,
					"numinlets" : 0,
					"numoutlets" : 1
				}

			}
, 			{
				"box" : 				{
					"maxclass" : "newobj",
					"text" : "sel 0",
					"patching_rect" : [ 888.0, 317.0, 36.0, 20.0 ],
					"outlettype" : [ "bang", "" ],
					"id" : "obj-220",
					"fontname" : "Arial",
					"fontsize" : 12.0,
					"numinlets" : 2,
					"numoutlets" : 2
				}

			}
, 			{
				"box" : 				{
					"maxclass" : "newobj",
					"text" : "sel 1",
					"patching_rect" : [ 851.0, 317.0, 36.0, 20.0 ],
					"outlettype" : [ "bang", "" ],
					"id" : "obj-221",
					"fontname" : "Arial",
					"fontsize" : 12.0,
					"numinlets" : 2,
					"numoutlets" : 2
				}

			}
, 			{
				"box" : 				{
					"maxclass" : "button",
					"patching_rect" : [ 871.0, 365.0, 19.0, 19.0 ],
					"outlettype" : [ "bang" ],
					"id" : "obj-223",
					"numinlets" : 1,
					"numoutlets" : 1
				}

			}
, 			{
				"box" : 				{
					"maxclass" : "message",
					"text" : "startloop",
					"patching_rect" : [ 852.0, 385.0, 50.0, 16.0 ],
					"outlettype" : [ "" ],
					"id" : "obj-224",
					"fontname" : "Arial",
					"fontsize" : 10.0,
					"numinlets" : 2,
					"numoutlets" : 1
				}

			}
, 			{
				"box" : 				{
					"maxclass" : "flonum",
					"patching_rect" : [ 902.0, 362.0, 53.0, 18.0 ],
					"outlettype" : [ "float", "bang" ],
					"id" : "obj-225",
					"fontname" : "Arial",
					"fontsize" : 10.0,
					"minimum" : 0.0,
					"numinlets" : 1,
					"maximum" : 2.0,
					"numoutlets" : 2
				}

			}
, 			{
				"box" : 				{
					"maxclass" : "newobj",
					"text" : "sig~",
					"patching_rect" : [ 902.0, 384.0, 30.0, 18.0 ],
					"outlettype" : [ "signal" ],
					"id" : "obj-226",
					"fontname" : "Arial",
					"fontsize" : 10.0,
					"numinlets" : 1,
					"numoutlets" : 1
				}

			}
, 			{
				"box" : 				{
					"maxclass" : "meter~",
					"patching_rect" : [ 914.0, 429.0, 71.0, 12.0 ],
					"outlettype" : [ "float" ],
					"id" : "obj-227",
					"numinlets" : 1,
					"numoutlets" : 1
				}

			}
, 			{
				"box" : 				{
					"maxclass" : "newobj",
					"text" : "groove~ sound4",
					"patching_rect" : [ 902.0, 409.0, 83.0, 18.0 ],
					"outlettype" : [ "signal", "signal" ],
					"id" : "obj-228",
					"fontname" : "Arial",
					"fontsize" : 10.0,
					"numinlets" : 3,
					"numoutlets" : 2
				}

			}
, 			{
				"box" : 				{
					"maxclass" : "newobj",
					"text" : "onebang",
					"patching_rect" : [ 851.0, 341.0, 49.0, 18.0 ],
					"outlettype" : [ "bang", "bang" ],
					"id" : "obj-229",
					"fontname" : "Arial",
					"fontsize" : 10.0,
					"numinlets" : 2,
					"numoutlets" : 2
				}

			}
, 			{
				"box" : 				{
					"maxclass" : "newobj",
					"text" : "r message3",
					"patching_rect" : [ 732.0, 274.0, 63.0, 18.0 ],
					"outlettype" : [ "" ],
					"id" : "obj-207",
					"fontname" : "Arial",
					"fontsize" : 10.0,
					"numinlets" : 0,
					"numoutlets" : 1
				}

			}
, 			{
				"box" : 				{
					"maxclass" : "newobj",
					"text" : "sel 0",
					"patching_rect" : [ 769.0, 317.0, 36.0, 20.0 ],
					"outlettype" : [ "bang", "" ],
					"id" : "obj-208",
					"fontname" : "Arial",
					"fontsize" : 12.0,
					"numinlets" : 2,
					"numoutlets" : 2
				}

			}
, 			{
				"box" : 				{
					"maxclass" : "newobj",
					"text" : "sel 1",
					"patching_rect" : [ 732.0, 317.0, 36.0, 20.0 ],
					"outlettype" : [ "bang", "" ],
					"id" : "obj-209",
					"fontname" : "Arial",
					"fontsize" : 12.0,
					"numinlets" : 2,
					"numoutlets" : 2
				}

			}
, 			{
				"box" : 				{
					"maxclass" : "button",
					"patching_rect" : [ 752.0, 365.0, 19.0, 19.0 ],
					"outlettype" : [ "bang" ],
					"id" : "obj-211",
					"numinlets" : 1,
					"numoutlets" : 1
				}

			}
, 			{
				"box" : 				{
					"maxclass" : "message",
					"text" : "startloop",
					"patching_rect" : [ 733.0, 385.0, 50.0, 16.0 ],
					"outlettype" : [ "" ],
					"id" : "obj-212",
					"fontname" : "Arial",
					"fontsize" : 10.0,
					"numinlets" : 2,
					"numoutlets" : 1
				}

			}
, 			{
				"box" : 				{
					"maxclass" : "flonum",
					"patching_rect" : [ 783.0, 362.0, 53.0, 18.0 ],
					"outlettype" : [ "float", "bang" ],
					"id" : "obj-213",
					"fontname" : "Arial",
					"fontsize" : 10.0,
					"minimum" : 0.0,
					"numinlets" : 1,
					"maximum" : 2.0,
					"numoutlets" : 2
				}

			}
, 			{
				"box" : 				{
					"maxclass" : "newobj",
					"text" : "sig~",
					"patching_rect" : [ 783.0, 384.0, 30.0, 18.0 ],
					"outlettype" : [ "signal" ],
					"id" : "obj-214",
					"fontname" : "Arial",
					"fontsize" : 10.0,
					"numinlets" : 1,
					"numoutlets" : 1
				}

			}
, 			{
				"box" : 				{
					"maxclass" : "meter~",
					"patching_rect" : [ 795.0, 429.0, 71.0, 12.0 ],
					"outlettype" : [ "float" ],
					"id" : "obj-215",
					"numinlets" : 1,
					"numoutlets" : 1
				}

			}
, 			{
				"box" : 				{
					"maxclass" : "newobj",
					"text" : "groove~ sound3",
					"patching_rect" : [ 783.0, 409.0, 83.0, 18.0 ],
					"outlettype" : [ "signal", "signal" ],
					"id" : "obj-216",
					"fontname" : "Arial",
					"fontsize" : 10.0,
					"numinlets" : 3,
					"numoutlets" : 2
				}

			}
, 			{
				"box" : 				{
					"maxclass" : "newobj",
					"text" : "onebang",
					"patching_rect" : [ 732.0, 341.0, 49.0, 18.0 ],
					"outlettype" : [ "bang", "bang" ],
					"id" : "obj-217",
					"fontname" : "Arial",
					"fontsize" : 10.0,
					"numinlets" : 2,
					"numoutlets" : 2
				}

			}
, 			{
				"box" : 				{
					"maxclass" : "newobj",
					"text" : "r message2",
					"patching_rect" : [ 609.0, 274.0, 63.0, 18.0 ],
					"outlettype" : [ "" ],
					"id" : "obj-180",
					"fontname" : "Arial",
					"fontsize" : 10.0,
					"numinlets" : 0,
					"numoutlets" : 1
				}

			}
, 			{
				"box" : 				{
					"maxclass" : "newobj",
					"text" : "sel 0",
					"patching_rect" : [ 646.0, 318.0, 36.0, 20.0 ],
					"outlettype" : [ "bang", "" ],
					"id" : "obj-181",
					"fontname" : "Arial",
					"fontsize" : 12.0,
					"numinlets" : 2,
					"numoutlets" : 2
				}

			}
, 			{
				"box" : 				{
					"maxclass" : "newobj",
					"text" : "sel 1",
					"patching_rect" : [ 609.0, 318.0, 36.0, 20.0 ],
					"outlettype" : [ "bang", "" ],
					"id" : "obj-182",
					"fontname" : "Arial",
					"fontsize" : 12.0,
					"numinlets" : 2,
					"numoutlets" : 2
				}

			}
, 			{
				"box" : 				{
					"maxclass" : "button",
					"patching_rect" : [ 629.0, 366.0, 19.0, 19.0 ],
					"outlettype" : [ "bang" ],
					"id" : "obj-184",
					"numinlets" : 1,
					"numoutlets" : 1
				}

			}
, 			{
				"box" : 				{
					"maxclass" : "message",
					"text" : "startloop",
					"patching_rect" : [ 610.0, 386.0, 50.0, 16.0 ],
					"outlettype" : [ "" ],
					"id" : "obj-185",
					"fontname" : "Arial",
					"fontsize" : 10.0,
					"numinlets" : 2,
					"numoutlets" : 1
				}

			}
, 			{
				"box" : 				{
					"maxclass" : "flonum",
					"patching_rect" : [ 660.0, 363.0, 53.0, 18.0 ],
					"outlettype" : [ "float", "bang" ],
					"id" : "obj-186",
					"fontname" : "Arial",
					"fontsize" : 10.0,
					"minimum" : 0.0,
					"numinlets" : 1,
					"maximum" : 2.0,
					"numoutlets" : 2
				}

			}
, 			{
				"box" : 				{
					"maxclass" : "newobj",
					"text" : "sig~",
					"patching_rect" : [ 660.0, 385.0, 30.0, 18.0 ],
					"outlettype" : [ "signal" ],
					"id" : "obj-187",
					"fontname" : "Arial",
					"fontsize" : 10.0,
					"numinlets" : 1,
					"numoutlets" : 1
				}

			}
, 			{
				"box" : 				{
					"maxclass" : "meter~",
					"patching_rect" : [ 672.0, 430.0, 71.0, 12.0 ],
					"outlettype" : [ "float" ],
					"id" : "obj-188",
					"numinlets" : 1,
					"numoutlets" : 1
				}

			}
, 			{
				"box" : 				{
					"maxclass" : "newobj",
					"text" : "groove~ sound2",
					"patching_rect" : [ 660.0, 410.0, 83.0, 18.0 ],
					"outlettype" : [ "signal", "signal" ],
					"id" : "obj-189",
					"fontname" : "Arial",
					"fontsize" : 10.0,
					"numinlets" : 3,
					"numoutlets" : 2
				}

			}
, 			{
				"box" : 				{
					"maxclass" : "newobj",
					"text" : "onebang",
					"patching_rect" : [ 609.0, 342.0, 49.0, 18.0 ],
					"outlettype" : [ "bang", "bang" ],
					"id" : "obj-190",
					"fontname" : "Arial",
					"fontsize" : 10.0,
					"numinlets" : 2,
					"numoutlets" : 2
				}

			}
, 			{
				"box" : 				{
					"maxclass" : "newobj",
					"text" : "r message1",
					"patching_rect" : [ 480.0, 274.0, 63.0, 18.0 ],
					"outlettype" : [ "" ],
					"id" : "obj-176",
					"fontname" : "Arial",
					"fontsize" : 10.0,
					"numinlets" : 0,
					"numoutlets" : 1
				}

			}
, 			{
				"box" : 				{
					"maxclass" : "newobj",
					"text" : "sel 0",
					"patching_rect" : [ 517.0, 318.0, 36.0, 20.0 ],
					"outlettype" : [ "bang", "" ],
					"id" : "obj-157",
					"fontname" : "Arial",
					"fontsize" : 12.0,
					"numinlets" : 2,
					"numoutlets" : 2
				}

			}
, 			{
				"box" : 				{
					"maxclass" : "newobj",
					"text" : "sel 1",
					"patching_rect" : [ 480.0, 318.0, 36.0, 20.0 ],
					"outlettype" : [ "bang", "" ],
					"id" : "obj-156",
					"fontname" : "Arial",
					"fontsize" : 12.0,
					"numinlets" : 2,
					"numoutlets" : 2
				}

			}
, 			{
				"box" : 				{
					"maxclass" : "message",
					"text" : "replace",
					"patching_rect" : [ 657.0, 183.0, 43.0, 16.0 ],
					"outlettype" : [ "" ],
					"id" : "obj-144",
					"fontname" : "Arial",
					"fontsize" : 10.0,
					"numinlets" : 2,
					"numoutlets" : 1
				}

			}
, 			{
				"box" : 				{
					"maxclass" : "message",
					"text" : "read",
					"patching_rect" : [ 657.0, 155.0, 32.5, 16.0 ],
					"outlettype" : [ "" ],
					"id" : "obj-145",
					"fontname" : "Arial",
					"fontsize" : 10.0,
					"numinlets" : 2,
					"numoutlets" : 1
				}

			}
, 			{
				"box" : 				{
					"maxclass" : "newobj",
					"text" : "buffer~ sound4 0",
					"patching_rect" : [ 715.0, 154.0, 87.0, 18.0 ],
					"outlettype" : [ "float", "bang" ],
					"id" : "obj-146",
					"fontname" : "Arial",
					"fontsize" : 10.0,
					"numinlets" : 1,
					"numoutlets" : 2
				}

			}
, 			{
				"box" : 				{
					"maxclass" : "message",
					"text" : "replace",
					"patching_rect" : [ 657.0, 110.0, 43.0, 16.0 ],
					"outlettype" : [ "" ],
					"id" : "obj-148",
					"fontname" : "Arial",
					"fontsize" : 10.0,
					"numinlets" : 2,
					"numoutlets" : 1
				}

			}
, 			{
				"box" : 				{
					"maxclass" : "message",
					"text" : "read",
					"patching_rect" : [ 657.0, 82.0, 32.5, 16.0 ],
					"outlettype" : [ "" ],
					"id" : "obj-64",
					"fontname" : "Arial",
					"fontsize" : 10.0,
					"numinlets" : 2,
					"numoutlets" : 1
				}

			}
, 			{
				"box" : 				{
					"maxclass" : "newobj",
					"text" : "buffer~ sound3 0",
					"patching_rect" : [ 712.0, 81.0, 87.0, 18.0 ],
					"outlettype" : [ "float", "bang" ],
					"id" : "obj-65",
					"fontname" : "Arial",
					"fontsize" : 10.0,
					"numinlets" : 1,
					"numoutlets" : 2
				}

			}
, 			{
				"box" : 				{
					"maxclass" : "message",
					"text" : "replace",
					"patching_rect" : [ 500.0, 182.0, 43.0, 16.0 ],
					"outlettype" : [ "" ],
					"id" : "obj-150",
					"fontname" : "Arial",
					"fontsize" : 10.0,
					"numinlets" : 2,
					"numoutlets" : 1
				}

			}
, 			{
				"box" : 				{
					"maxclass" : "message",
					"text" : "read",
					"patching_rect" : [ 500.0, 154.0, 32.5, 16.0 ],
					"outlettype" : [ "" ],
					"id" : "obj-56",
					"fontname" : "Arial",
					"fontsize" : 10.0,
					"numinlets" : 2,
					"numoutlets" : 1
				}

			}
, 			{
				"box" : 				{
					"maxclass" : "newobj",
					"text" : "buffer~ sound2 0",
					"patching_rect" : [ 559.0, 154.0, 87.0, 18.0 ],
					"outlettype" : [ "float", "bang" ],
					"id" : "obj-60",
					"fontname" : "Arial",
					"fontsize" : 10.0,
					"numinlets" : 1,
					"numoutlets" : 2
				}

			}
, 			{
				"box" : 				{
					"maxclass" : "message",
					"text" : "replace",
					"patching_rect" : [ 497.0, 109.0, 43.0, 16.0 ],
					"outlettype" : [ "" ],
					"id" : "obj-195",
					"fontname" : "Arial",
					"fontsize" : 10.0,
					"numinlets" : 2,
					"numoutlets" : 1
				}

			}
, 			{
				"box" : 				{
					"maxclass" : "message",
					"text" : "read",
					"patching_rect" : [ 497.0, 81.0, 32.5, 16.0 ],
					"outlettype" : [ "" ],
					"id" : "obj-152",
					"fontname" : "Arial",
					"fontsize" : 10.0,
					"numinlets" : 2,
					"numoutlets" : 1
				}

			}
, 			{
				"box" : 				{
					"maxclass" : "newobj",
					"text" : "buffer~ sound1 0",
					"patching_rect" : [ 558.0, 81.0, 87.0, 18.0 ],
					"outlettype" : [ "float", "bang" ],
					"id" : "obj-199",
					"fontname" : "Arial",
					"fontsize" : 10.0,
					"numinlets" : 1,
					"numoutlets" : 2
				}

			}
, 			{
				"box" : 				{
					"maxclass" : "newobj",
					"text" : "loadbang",
					"patching_rect" : [ 554.0, 346.0, 52.0, 18.0 ],
					"outlettype" : [ "bang" ],
					"id" : "obj-87",
					"fontname" : "Arial",
					"fontsize" : 10.0,
					"numinlets" : 1,
					"numoutlets" : 1
				}

			}
, 			{
				"box" : 				{
					"maxclass" : "button",
					"patching_rect" : [ 500.0, 366.0, 19.0, 19.0 ],
					"outlettype" : [ "bang" ],
					"id" : "obj-86",
					"numinlets" : 1,
					"numoutlets" : 1
				}

			}
, 			{
				"box" : 				{
					"maxclass" : "message",
					"text" : "startloop",
					"patching_rect" : [ 481.0, 386.0, 50.0, 16.0 ],
					"outlettype" : [ "" ],
					"id" : "obj-161",
					"fontname" : "Arial",
					"fontsize" : 10.0,
					"numinlets" : 2,
					"numoutlets" : 1
				}

			}
, 			{
				"box" : 				{
					"maxclass" : "ezdac~",
					"varname" : "autohelp_dac[1]",
					"patching_rect" : [ 802.0, 665.0, 45.0, 45.0 ],
					"id" : "obj-159",
					"local" : 1,
					"numinlets" : 2,
					"numoutlets" : 0
				}

			}
, 			{
				"box" : 				{
					"maxclass" : "flonum",
					"patching_rect" : [ 531.0, 365.0, 53.0, 18.0 ],
					"outlettype" : [ "float", "bang" ],
					"id" : "obj-76",
					"fontname" : "Arial",
					"fontsize" : 10.0,
					"minimum" : 0.0,
					"numinlets" : 1,
					"maximum" : 2.0,
					"numoutlets" : 2
				}

			}
, 			{
				"box" : 				{
					"maxclass" : "newobj",
					"text" : "sig~",
					"patching_rect" : [ 531.0, 385.0, 30.0, 18.0 ],
					"outlettype" : [ "signal" ],
					"id" : "obj-78",
					"fontname" : "Arial",
					"fontsize" : 10.0,
					"numinlets" : 1,
					"numoutlets" : 1
				}

			}
, 			{
				"box" : 				{
					"maxclass" : "meter~",
					"patching_rect" : [ 543.0, 430.0, 71.0, 12.0 ],
					"outlettype" : [ "float" ],
					"id" : "obj-81",
					"numinlets" : 1,
					"numoutlets" : 1
				}

			}
, 			{
				"box" : 				{
					"maxclass" : "newobj",
					"text" : "groove~ sound1",
					"patching_rect" : [ 531.0, 410.0, 83.0, 18.0 ],
					"outlettype" : [ "signal", "signal" ],
					"id" : "obj-82",
					"fontname" : "Arial",
					"fontsize" : 10.0,
					"numinlets" : 3,
					"numoutlets" : 2
				}

			}
, 			{
				"box" : 				{
					"maxclass" : "newobj",
					"text" : "onebang",
					"patching_rect" : [ 480.0, 342.0, 49.0, 18.0 ],
					"outlettype" : [ "bang", "bang" ],
					"id" : "obj-197",
					"fontname" : "Arial",
					"fontsize" : 10.0,
					"numinlets" : 2,
					"numoutlets" : 2
				}

			}
, 			{
				"box" : 				{
					"maxclass" : "newobj",
					"text" : "s message7",
					"patching_rect" : [ 342.0, 443.0, 64.0, 18.0 ],
					"id" : "obj-44",
					"fontname" : "Arial",
					"fontsize" : 10.0,
					"numinlets" : 1,
					"numoutlets" : 0
				}

			}
, 			{
				"box" : 				{
					"maxclass" : "newobj",
					"text" : "s message5",
					"patching_rect" : [ 255.0, 445.0, 64.0, 18.0 ],
					"id" : "obj-43",
					"fontname" : "Arial",
					"fontsize" : 10.0,
					"numinlets" : 1,
					"numoutlets" : 0
				}

			}
, 			{
				"box" : 				{
					"maxclass" : "newobj",
					"text" : "s message3",
					"patching_rect" : [ 168.0, 445.0, 64.0, 18.0 ],
					"id" : "obj-42",
					"fontname" : "Arial",
					"fontsize" : 10.0,
					"numinlets" : 1,
					"numoutlets" : 0
				}

			}
, 			{
				"box" : 				{
					"maxclass" : "newobj",
					"text" : "s message1",
					"patching_rect" : [ 80.0, 446.0, 64.0, 18.0 ],
					"id" : "obj-41",
					"fontname" : "Arial",
					"fontsize" : 10.0,
					"numinlets" : 1,
					"numoutlets" : 0
				}

			}
, 			{
				"box" : 				{
					"maxclass" : "comment",
					"text" : "message id 7",
					"patching_rect" : [ 341.602875, 468.136108, 81.0, 18.0 ],
					"id" : "obj-16",
					"fontname" : "Arial",
					"fontsize" : 10.0,
					"numinlets" : 1,
					"numoutlets" : 0
				}

			}
, 			{
				"box" : 				{
					"maxclass" : "comment",
					"text" : "message id 5",
					"patching_rect" : [ 254.602875, 469.136108, 81.0, 18.0 ],
					"id" : "obj-9",
					"fontname" : "Arial",
					"fontsize" : 10.0,
					"numinlets" : 1,
					"numoutlets" : 0
				}

			}
, 			{
				"box" : 				{
					"maxclass" : "newobj",
					"text" : "fromsymbol",
					"patching_rect" : [ 341.602875, 397.333344, 62.0, 18.0 ],
					"outlettype" : [ "" ],
					"id" : "obj-4",
					"fontname" : "Arial",
					"fontsize" : 10.0,
					"numinlets" : 1,
					"numoutlets" : 1
				}

			}
, 			{
				"box" : 				{
					"maxclass" : "number",
					"patching_rect" : [ 341.602875, 420.333344, 48.0, 18.0 ],
					"outlettype" : [ "int", "bang" ],
					"id" : "obj-7",
					"fontname" : "Arial",
					"fontsize" : 10.0,
					"numinlets" : 1,
					"numoutlets" : 2
				}

			}
, 			{
				"box" : 				{
					"maxclass" : "newobj",
					"text" : "itoa",
					"patching_rect" : [ 341.602875, 374.333344, 42.0, 18.0 ],
					"outlettype" : [ "int" ],
					"id" : "obj-8",
					"fontname" : "Arial",
					"fontsize" : 10.0,
					"numinlets" : 3,
					"numoutlets" : 1
				}

			}
, 			{
				"box" : 				{
					"maxclass" : "newobj",
					"text" : "fromsymbol",
					"patching_rect" : [ 254.602875, 399.190918, 62.0, 18.0 ],
					"outlettype" : [ "" ],
					"id" : "obj-12",
					"fontname" : "Arial",
					"fontsize" : 10.0,
					"numinlets" : 1,
					"numoutlets" : 1
				}

			}
, 			{
				"box" : 				{
					"maxclass" : "number",
					"patching_rect" : [ 254.602875, 422.789429, 48.0, 18.0 ],
					"outlettype" : [ "int", "bang" ],
					"id" : "obj-13",
					"fontname" : "Arial",
					"fontsize" : 10.0,
					"numinlets" : 1,
					"numoutlets" : 2
				}

			}
, 			{
				"box" : 				{
					"maxclass" : "newobj",
					"text" : "itoa",
					"patching_rect" : [ 254.602875, 375.962494, 42.0, 18.0 ],
					"outlettype" : [ "int" ],
					"id" : "obj-14",
					"fontname" : "Arial",
					"fontsize" : 10.0,
					"numinlets" : 3,
					"numoutlets" : 1
				}

			}
, 			{
				"box" : 				{
					"maxclass" : "number",
					"patching_rect" : [ 82.167671, 424.0, 48.0, 18.0 ],
					"outlettype" : [ "int", "bang" ],
					"id" : "obj-6",
					"fontname" : "Arial",
					"fontsize" : 10.0,
					"numinlets" : 1,
					"numoutlets" : 2
				}

			}
, 			{
				"box" : 				{
					"maxclass" : "newobj",
					"text" : "metro 10",
					"patching_rect" : [ 65.0, 123.0, 58.0, 18.0 ],
					"outlettype" : [ "bang" ],
					"id" : "obj-29",
					"fontname" : "Arial",
					"fontsize" : 10.0,
					"numinlets" : 2,
					"numoutlets" : 1
				}

			}
, 			{
				"box" : 				{
					"maxclass" : "comment",
					"text" : "message id 3",
					"patching_rect" : [ 168.602875, 469.136108, 81.0, 18.0 ],
					"id" : "obj-115",
					"fontname" : "Arial",
					"fontsize" : 10.0,
					"numinlets" : 1,
					"numoutlets" : 0
				}

			}
, 			{
				"box" : 				{
					"maxclass" : "comment",
					"text" : "message id 1",
					"patching_rect" : [ 82.167671, 469.136108, 81.0, 18.0 ],
					"id" : "obj-114",
					"fontname" : "Arial",
					"fontsize" : 10.0,
					"numinlets" : 1,
					"numoutlets" : 0
				}

			}
, 			{
				"box" : 				{
					"maxclass" : "newobj",
					"text" : "fromsymbol",
					"patching_rect" : [ 168.602875, 398.333344, 62.0, 18.0 ],
					"outlettype" : [ "" ],
					"id" : "obj-110",
					"fontname" : "Arial",
					"fontsize" : 10.0,
					"numinlets" : 1,
					"numoutlets" : 1
				}

			}
, 			{
				"box" : 				{
					"maxclass" : "number",
					"patching_rect" : [ 168.602875, 421.333344, 48.0, 18.0 ],
					"outlettype" : [ "int", "bang" ],
					"id" : "obj-111",
					"fontname" : "Arial",
					"fontsize" : 10.0,
					"numinlets" : 1,
					"numoutlets" : 2
				}

			}
, 			{
				"box" : 				{
					"maxclass" : "newobj",
					"text" : "itoa",
					"patching_rect" : [ 168.602875, 375.333344, 42.0, 18.0 ],
					"outlettype" : [ "int" ],
					"id" : "obj-112",
					"fontname" : "Arial",
					"fontsize" : 10.0,
					"numinlets" : 3,
					"numoutlets" : 1
				}

			}
, 			{
				"box" : 				{
					"maxclass" : "newobj",
					"text" : "t zlclear",
					"patching_rect" : [ 55.715824, 269.54187, 45.0, 18.0 ],
					"outlettype" : [ "zlclear" ],
					"id" : "obj-102",
					"fontname" : "Arial",
					"fontsize" : 10.0,
					"numinlets" : 1,
					"numoutlets" : 1
				}

			}
, 			{
				"box" : 				{
					"maxclass" : "newobj",
					"text" : "sel 0",
					"patching_rect" : [ 63.783585, 169.594025, 32.0, 18.0 ],
					"outlettype" : [ "bang", "" ],
					"id" : "obj-101",
					"fontname" : "Arial",
					"fontsize" : 10.0,
					"numinlets" : 2,
					"numoutlets" : 2
				}

			}
, 			{
				"box" : 				{
					"maxclass" : "newobj",
					"text" : "route 1 2 3 4 5 6 7 8",
					"patching_rect" : [ 82.053894, 346.246582, 320.0, 18.0 ],
					"outlettype" : [ "", "", "", "", "", "", "", "", "" ],
					"id" : "obj-40",
					"fontname" : "Arial",
					"fontsize" : 10.0,
					"numinlets" : 1,
					"numoutlets" : 9
				}

			}
, 			{
				"box" : 				{
					"maxclass" : "newobj",
					"text" : "fromsymbol",
					"patching_rect" : [ 82.167671, 399.190918, 62.0, 18.0 ],
					"outlettype" : [ "" ],
					"id" : "obj-31",
					"fontname" : "Arial",
					"fontsize" : 10.0,
					"numinlets" : 1,
					"numoutlets" : 1
				}

			}
, 			{
				"box" : 				{
					"maxclass" : "newobj",
					"text" : "itoa",
					"patching_rect" : [ 82.167671, 375.962494, 42.0, 18.0 ],
					"outlettype" : [ "int" ],
					"id" : "obj-15",
					"fontname" : "Arial",
					"fontsize" : 10.0,
					"numinlets" : 3,
					"numoutlets" : 1
				}

			}
, 			{
				"box" : 				{
					"maxclass" : "newobj",
					"text" : "zl ecils 2",
					"patching_rect" : [ 81.053894, 319.375153, 49.0, 18.0 ],
					"outlettype" : [ "", "" ],
					"id" : "obj-10",
					"fontname" : "Arial",
					"fontsize" : 10.0,
					"numinlets" : 2,
					"numoutlets" : 2
				}

			}
, 			{
				"box" : 				{
					"maxclass" : "newobj",
					"text" : "t i i",
					"patching_rect" : [ 81.053894, 194.375153, 78.0, 18.0 ],
					"outlettype" : [ "int", "int" ],
					"id" : "obj-85",
					"fontname" : "Arial",
					"fontsize" : 10.0,
					"numinlets" : 1,
					"numoutlets" : 2
				}

			}
, 			{
				"box" : 				{
					"maxclass" : "newobj",
					"text" : "zl group 140",
					"patching_rect" : [ 81.053894, 294.375153, 66.0, 18.0 ],
					"outlettype" : [ "", "" ],
					"id" : "obj-83",
					"fontname" : "Arial",
					"fontsize" : 10.0,
					"numinlets" : 2,
					"numoutlets" : 2
				}

			}
, 			{
				"box" : 				{
					"maxclass" : "newobj",
					"text" : "match 13 10",
					"patching_rect" : [ 81.053894, 217.375153, 66.0, 18.0 ],
					"outlettype" : [ "" ],
					"id" : "obj-73",
					"fontname" : "Arial",
					"fontsize" : 10.0,
					"numinlets" : 1,
					"numoutlets" : 1
				}

			}
, 			{
				"box" : 				{
					"maxclass" : "newobj",
					"text" : "t zlclear b",
					"patching_rect" : [ 81.053894, 241.375153, 53.0, 18.0 ],
					"outlettype" : [ "zlclear", "bang" ],
					"id" : "obj-62",
					"fontname" : "Arial",
					"fontsize" : 10.0,
					"numinlets" : 1,
					"numoutlets" : 2
				}

			}
, 			{
				"box" : 				{
					"maxclass" : "panel",
					"patching_rect" : [ 478.0, 54.0, 668.0, 181.0 ],
					"id" : "obj-153",
					"bgcolor" : [ 0.858824, 0.843137, 0.843137, 1.0 ],
					"numinlets" : 1,
					"numoutlets" : 0
				}

			}
 ],
		"lines" : [ 			{
				"patchline" : 				{
					"source" : [ "obj-37", 0 ],
					"destination" : [ "obj-101", 0 ],
					"hidden" : 0,
					"midpoints" : [  ]
				}

			}
, 			{
				"patchline" : 				{
					"source" : [ "obj-29", 0 ],
					"destination" : [ "obj-37", 0 ],
					"hidden" : 0,
					"midpoints" : [  ]
				}

			}
, 			{
				"patchline" : 				{
					"source" : [ "obj-51", 0 ],
					"destination" : [ "obj-37", 0 ],
					"hidden" : 0,
					"midpoints" : [ 243.5, 185.0, 158.0, 185.0, 158.0, 143.0, 72.5, 143.0 ]
				}

			}
, 			{
				"patchline" : 				{
					"source" : [ "obj-50", 0 ],
					"destination" : [ "obj-37", 0 ],
					"hidden" : 0,
					"midpoints" : [ 283.5, 184.0, 178.0, 184.0, 178.0, 143.0, 72.5, 143.0 ]
				}

			}
, 			{
				"patchline" : 				{
					"source" : [ "obj-37", 1 ],
					"destination" : [ "obj-35", 0 ],
					"hidden" : 0,
					"midpoints" : [  ]
				}

			}
, 			{
				"patchline" : 				{
					"source" : [ "obj-11", 0 ],
					"destination" : [ "obj-37", 0 ],
					"hidden" : 0,
					"midpoints" : [ 125.5, 123.5, 72.5, 123.5 ]
				}

			}
, 			{
				"patchline" : 				{
					"source" : [ "obj-90", 0 ],
					"destination" : [ "obj-37", 0 ],
					"hidden" : 0,
					"midpoints" : [ 341.5, 230.0, 207.0, 230.0, 207.0, 145.0, 72.5, 145.0 ]
				}

			}
, 			{
				"patchline" : 				{
					"source" : [ "obj-55", 1 ],
					"destination" : [ "obj-37", 0 ],
					"hidden" : 0,
					"midpoints" : [ 374.0, 124.0, 72.5, 124.0 ]
				}

			}
, 			{
				"patchline" : 				{
					"source" : [ "obj-37", 0 ],
					"destination" : [ "obj-324", 0 ],
					"hidden" : 0,
					"midpoints" : [  ]
				}

			}
, 			{
				"patchline" : 				{
					"source" : [ "obj-91", 0 ],
					"destination" : [ "obj-90", 0 ],
					"hidden" : 0,
					"midpoints" : [  ]
				}

			}
, 			{
				"patchline" : 				{
					"source" : [ "obj-28", 2 ],
					"destination" : [ "obj-90", 0 ],
					"hidden" : 0,
					"midpoints" : [ 377.5, 201.0, 341.5, 201.0 ]
				}

			}
, 			{
				"patchline" : 				{
					"source" : [ "obj-54", 0 ],
					"destination" : [ "obj-53", 0 ],
					"hidden" : 0,
					"midpoints" : [  ]
				}

			}
, 			{
				"patchline" : 				{
					"source" : [ "obj-53", 0 ],
					"destination" : [ "obj-29", 0 ],
					"hidden" : 0,
					"midpoints" : [  ]
				}

			}
, 			{
				"patchline" : 				{
					"source" : [ "obj-94", 1 ],
					"destination" : [ "obj-28", 0 ],
					"hidden" : 0,
					"midpoints" : [  ]
				}

			}
, 			{
				"patchline" : 				{
					"source" : [ "obj-93", 0 ],
					"destination" : [ "obj-94", 0 ],
					"hidden" : 0,
					"midpoints" : [  ]
				}

			}
, 			{
				"patchline" : 				{
					"source" : [ "obj-92", 0 ],
					"destination" : [ "obj-93", 0 ],
					"hidden" : 0,
					"midpoints" : [  ]
				}

			}
, 			{
				"patchline" : 				{
					"source" : [ "obj-30", 1 ],
					"destination" : [ "obj-94", 0 ],
					"hidden" : 0,
					"midpoints" : [ 268.5, 104.5, 243.5, 104.5 ]
				}

			}
, 			{
				"patchline" : 				{
					"source" : [ "obj-30", 0 ],
					"destination" : [ "obj-92", 0 ],
					"hidden" : 0,
					"midpoints" : [  ]
				}

			}
, 			{
				"patchline" : 				{
					"source" : [ "obj-28", 0 ],
					"destination" : [ "obj-91", 0 ],
					"hidden" : 0,
					"midpoints" : [  ]
				}

			}
, 			{
				"patchline" : 				{
					"source" : [ "obj-35", 2 ],
					"destination" : [ "obj-30", 0 ],
					"hidden" : 0,
					"midpoints" : [ 187.5, 190.0, 216.0, 190.0, 216.0, 46.0, 244.5, 46.0 ]
				}

			}
, 			{
				"patchline" : 				{
					"source" : [ "obj-26", 0 ],
					"destination" : [ "obj-33", 0 ],
					"hidden" : 0,
					"midpoints" : [  ]
				}

			}
, 			{
				"patchline" : 				{
					"source" : [ "obj-2", 0 ],
					"destination" : [ "obj-50", 0 ],
					"hidden" : 0,
					"midpoints" : [ 184.5, 156.5, 283.5, 156.5 ]
				}

			}
, 			{
				"patchline" : 				{
					"source" : [ "obj-33", 0 ],
					"destination" : [ "obj-11", 0 ],
					"hidden" : 0,
					"midpoints" : [  ]
				}

			}
, 			{
				"patchline" : 				{
					"source" : [ "obj-275", 0 ],
					"destination" : [ "obj-274", 0 ],
					"hidden" : 0,
					"midpoints" : [  ]
				}

			}
, 			{
				"patchline" : 				{
					"source" : [ "obj-273", 0 ],
					"destination" : [ "obj-275", 0 ],
					"hidden" : 0,
					"midpoints" : [  ]
				}

			}
, 			{
				"patchline" : 				{
					"source" : [ "obj-271", 0 ],
					"destination" : [ "obj-275", 0 ],
					"hidden" : 0,
					"midpoints" : [  ]
				}

			}
, 			{
				"patchline" : 				{
					"source" : [ "obj-275", 0 ],
					"destination" : [ "obj-159", 0 ],
					"hidden" : 0,
					"midpoints" : [ 1171.5, 643.0, 811.5, 643.0 ]
				}

			}
, 			{
				"patchline" : 				{
					"source" : [ "obj-275", 0 ],
					"destination" : [ "obj-159", 1 ],
					"hidden" : 0,
					"midpoints" : [ 1171.5, 643.0, 837.5, 643.0 ]
				}

			}
, 			{
				"patchline" : 				{
					"source" : [ "obj-285", 0 ],
					"destination" : [ "obj-284", 0 ],
					"hidden" : 0,
					"midpoints" : [  ]
				}

			}
, 			{
				"patchline" : 				{
					"source" : [ "obj-283", 0 ],
					"destination" : [ "obj-285", 0 ],
					"hidden" : 0,
					"midpoints" : [  ]
				}

			}
, 			{
				"patchline" : 				{
					"source" : [ "obj-281", 0 ],
					"destination" : [ "obj-285", 0 ],
					"hidden" : 0,
					"midpoints" : [  ]
				}

			}
, 			{
				"patchline" : 				{
					"source" : [ "obj-285", 0 ],
					"destination" : [ "obj-159", 0 ],
					"hidden" : 0,
					"midpoints" : [ 1051.5, 642.0, 811.5, 642.0 ]
				}

			}
, 			{
				"patchline" : 				{
					"source" : [ "obj-285", 0 ],
					"destination" : [ "obj-159", 1 ],
					"hidden" : 0,
					"midpoints" : [ 1051.5, 642.0, 837.5, 642.0 ]
				}

			}
, 			{
				"patchline" : 				{
					"source" : [ "obj-244", 0 ],
					"destination" : [ "obj-248", 0 ],
					"hidden" : 0,
					"midpoints" : [  ]
				}

			}
, 			{
				"patchline" : 				{
					"source" : [ "obj-246", 0 ],
					"destination" : [ "obj-248", 0 ],
					"hidden" : 0,
					"midpoints" : [  ]
				}

			}
, 			{
				"patchline" : 				{
					"source" : [ "obj-248", 0 ],
					"destination" : [ "obj-247", 0 ],
					"hidden" : 0,
					"midpoints" : [  ]
				}

			}
, 			{
				"patchline" : 				{
					"source" : [ "obj-248", 0 ],
					"destination" : [ "obj-159", 0 ],
					"hidden" : 0,
					"midpoints" : [ 1155.5, 460.0, 811.5, 460.0 ]
				}

			}
, 			{
				"patchline" : 				{
					"source" : [ "obj-248", 0 ],
					"destination" : [ "obj-159", 1 ],
					"hidden" : 0,
					"midpoints" : [ 1155.5, 462.0, 837.5, 462.0 ]
				}

			}
, 			{
				"patchline" : 				{
					"source" : [ "obj-234", 0 ],
					"destination" : [ "obj-238", 0 ],
					"hidden" : 0,
					"midpoints" : [  ]
				}

			}
, 			{
				"patchline" : 				{
					"source" : [ "obj-236", 0 ],
					"destination" : [ "obj-238", 0 ],
					"hidden" : 0,
					"midpoints" : [  ]
				}

			}
, 			{
				"patchline" : 				{
					"source" : [ "obj-238", 0 ],
					"destination" : [ "obj-237", 0 ],
					"hidden" : 0,
					"midpoints" : [  ]
				}

			}
, 			{
				"patchline" : 				{
					"source" : [ "obj-238", 0 ],
					"destination" : [ "obj-159", 0 ],
					"hidden" : 0,
					"midpoints" : [ 1035.5, 460.0, 811.5, 460.0 ]
				}

			}
, 			{
				"patchline" : 				{
					"source" : [ "obj-238", 0 ],
					"destination" : [ "obj-159", 1 ],
					"hidden" : 0,
					"midpoints" : [ 1035.5, 460.0, 837.5, 460.0 ]
				}

			}
, 			{
				"patchline" : 				{
					"source" : [ "obj-228", 0 ],
					"destination" : [ "obj-227", 0 ],
					"hidden" : 0,
					"midpoints" : [  ]
				}

			}
, 			{
				"patchline" : 				{
					"source" : [ "obj-226", 0 ],
					"destination" : [ "obj-228", 0 ],
					"hidden" : 0,
					"midpoints" : [  ]
				}

			}
, 			{
				"patchline" : 				{
					"source" : [ "obj-224", 0 ],
					"destination" : [ "obj-228", 0 ],
					"hidden" : 0,
					"midpoints" : [  ]
				}

			}
, 			{
				"patchline" : 				{
					"source" : [ "obj-228", 0 ],
					"destination" : [ "obj-159", 0 ],
					"hidden" : 0,
					"midpoints" : [ 911.5, 545.5, 811.5, 545.5 ]
				}

			}
, 			{
				"patchline" : 				{
					"source" : [ "obj-228", 0 ],
					"destination" : [ "obj-159", 1 ],
					"hidden" : 0,
					"midpoints" : [ 911.5, 545.5, 837.5, 545.5 ]
				}

			}
, 			{
				"patchline" : 				{
					"source" : [ "obj-216", 0 ],
					"destination" : [ "obj-215", 0 ],
					"hidden" : 0,
					"midpoints" : [  ]
				}

			}
, 			{
				"patchline" : 				{
					"source" : [ "obj-214", 0 ],
					"destination" : [ "obj-216", 0 ],
					"hidden" : 0,
					"midpoints" : [  ]
				}

			}
, 			{
				"patchline" : 				{
					"source" : [ "obj-212", 0 ],
					"destination" : [ "obj-216", 0 ],
					"hidden" : 0,
					"midpoints" : [  ]
				}

			}
, 			{
				"patchline" : 				{
					"source" : [ "obj-216", 0 ],
					"destination" : [ "obj-159", 0 ],
					"hidden" : 0,
					"midpoints" : [ 792.5, 545.5, 811.5, 545.5 ]
				}

			}
, 			{
				"patchline" : 				{
					"source" : [ "obj-216", 0 ],
					"destination" : [ "obj-159", 1 ],
					"hidden" : 0,
					"midpoints" : [ 792.5, 545.5, 837.5, 545.5 ]
				}

			}
, 			{
				"patchline" : 				{
					"source" : [ "obj-40", 7 ],
					"destination" : [ "obj-311", 0 ],
					"hidden" : 0,
					"midpoints" : [  ]
				}

			}
, 			{
				"patchline" : 				{
					"source" : [ "obj-40", 6 ],
					"destination" : [ "obj-8", 0 ],
					"hidden" : 0,
					"midpoints" : [ 317.303894, 368.789978, 351.102875, 368.789978 ]
				}

			}
, 			{
				"patchline" : 				{
					"source" : [ "obj-40", 5 ],
					"destination" : [ "obj-314", 0 ],
					"hidden" : 0,
					"midpoints" : [ 279.678894, 371.604553, 267.102875, 371.604553 ]
				}

			}
, 			{
				"patchline" : 				{
					"source" : [ "obj-40", 4 ],
					"destination" : [ "obj-14", 0 ],
					"hidden" : 0,
					"midpoints" : [ 242.053894, 369.604553, 264.102875, 369.604553 ]
				}

			}
, 			{
				"patchline" : 				{
					"source" : [ "obj-40", 3 ],
					"destination" : [ "obj-320", 0 ],
					"hidden" : 0,
					"midpoints" : [ 204.428894, 431.289978, 181.102875, 431.289978 ]
				}

			}
, 			{
				"patchline" : 				{
					"source" : [ "obj-40", 2 ],
					"destination" : [ "obj-112", 0 ],
					"hidden" : 0,
					"midpoints" : [ 166.803894, 369.289978, 178.102875, 369.289978 ]
				}

			}
, 			{
				"patchline" : 				{
					"source" : [ "obj-40", 1 ],
					"destination" : [ "obj-322", 0 ],
					"hidden" : 0,
					"midpoints" : [ 129.178894, 466.604553, 94.667671, 466.604553 ]
				}

			}
, 			{
				"patchline" : 				{
					"source" : [ "obj-309", 0 ],
					"destination" : [ "obj-303", 0 ],
					"hidden" : 0,
					"midpoints" : [  ]
				}

			}
, 			{
				"patchline" : 				{
					"source" : [ "obj-4", 0 ],
					"destination" : [ "obj-44", 0 ],
					"hidden" : 0,
					"midpoints" : [  ]
				}

			}
, 			{
				"patchline" : 				{
					"source" : [ "obj-312", 0 ],
					"destination" : [ "obj-304", 0 ],
					"hidden" : 0,
					"midpoints" : [  ]
				}

			}
, 			{
				"patchline" : 				{
					"source" : [ "obj-12", 0 ],
					"destination" : [ "obj-43", 0 ],
					"hidden" : 0,
					"midpoints" : [  ]
				}

			}
, 			{
				"patchline" : 				{
					"source" : [ "obj-318", 0 ],
					"destination" : [ "obj-305", 0 ],
					"hidden" : 0,
					"midpoints" : [  ]
				}

			}
, 			{
				"patchline" : 				{
					"source" : [ "obj-110", 0 ],
					"destination" : [ "obj-42", 0 ],
					"hidden" : 0,
					"midpoints" : [  ]
				}

			}
, 			{
				"patchline" : 				{
					"source" : [ "obj-321", 0 ],
					"destination" : [ "obj-306", 0 ],
					"hidden" : 0,
					"midpoints" : [  ]
				}

			}
, 			{
				"patchline" : 				{
					"source" : [ "obj-40", 0 ],
					"destination" : [ "obj-15", 0 ],
					"hidden" : 0,
					"midpoints" : [  ]
				}

			}
, 			{
				"patchline" : 				{
					"source" : [ "obj-10", 0 ],
					"destination" : [ "obj-40", 0 ],
					"hidden" : 0,
					"midpoints" : [  ]
				}

			}
, 			{
				"patchline" : 				{
					"source" : [ "obj-311", 0 ],
					"destination" : [ "obj-309", 0 ],
					"hidden" : 0,
					"midpoints" : [  ]
				}

			}
, 			{
				"patchline" : 				{
					"source" : [ "obj-309", 0 ],
					"destination" : [ "obj-310", 0 ],
					"hidden" : 0,
					"midpoints" : [  ]
				}

			}
, 			{
				"patchline" : 				{
					"source" : [ "obj-321", 0 ],
					"destination" : [ "obj-315", 0 ],
					"hidden" : 0,
					"midpoints" : [  ]
				}

			}
, 			{
				"patchline" : 				{
					"source" : [ "obj-322", 0 ],
					"destination" : [ "obj-321", 0 ],
					"hidden" : 0,
					"midpoints" : [  ]
				}

			}
, 			{
				"patchline" : 				{
					"source" : [ "obj-320", 0 ],
					"destination" : [ "obj-318", 0 ],
					"hidden" : 0,
					"midpoints" : [  ]
				}

			}
, 			{
				"patchline" : 				{
					"source" : [ "obj-318", 0 ],
					"destination" : [ "obj-319", 0 ],
					"hidden" : 0,
					"midpoints" : [  ]
				}

			}
, 			{
				"patchline" : 				{
					"source" : [ "obj-312", 0 ],
					"destination" : [ "obj-313", 0 ],
					"hidden" : 0,
					"midpoints" : [  ]
				}

			}
, 			{
				"patchline" : 				{
					"source" : [ "obj-314", 0 ],
					"destination" : [ "obj-312", 0 ],
					"hidden" : 0,
					"midpoints" : [  ]
				}

			}
, 			{
				"patchline" : 				{
					"source" : [ "obj-189", 0 ],
					"destination" : [ "obj-159", 1 ],
					"hidden" : 0,
					"midpoints" : [ 669.5, 546.0, 837.5, 546.0 ]
				}

			}
, 			{
				"patchline" : 				{
					"source" : [ "obj-82", 0 ],
					"destination" : [ "obj-159", 1 ],
					"hidden" : 0,
					"midpoints" : [ 540.5, 546.0, 837.5, 546.0 ]
				}

			}
, 			{
				"patchline" : 				{
					"source" : [ "obj-189", 0 ],
					"destination" : [ "obj-159", 0 ],
					"hidden" : 0,
					"midpoints" : [ 669.5, 546.0, 811.5, 546.0 ]
				}

			}
, 			{
				"patchline" : 				{
					"source" : [ "obj-82", 0 ],
					"destination" : [ "obj-159", 0 ],
					"hidden" : 0,
					"midpoints" : [ 540.5, 546.0, 811.5, 546.0 ]
				}

			}
, 			{
				"patchline" : 				{
					"source" : [ "obj-267", 0 ],
					"destination" : [ "obj-302", 0 ],
					"hidden" : 0,
					"midpoints" : [  ]
				}

			}
, 			{
				"patchline" : 				{
					"source" : [ "obj-267", 0 ],
					"destination" : [ "obj-268", 0 ],
					"hidden" : 0,
					"midpoints" : [ 1120.5, 504.5, 1157.5, 504.5 ]
				}

			}
, 			{
				"patchline" : 				{
					"source" : [ "obj-277", 0 ],
					"destination" : [ "obj-278", 0 ],
					"hidden" : 0,
					"midpoints" : [ 1000.5, 502.5, 1037.5, 502.5 ]
				}

			}
, 			{
				"patchline" : 				{
					"source" : [ "obj-277", 0 ],
					"destination" : [ "obj-300", 0 ],
					"hidden" : 0,
					"midpoints" : [  ]
				}

			}
, 			{
				"patchline" : 				{
					"source" : [ "obj-240", 0 ],
					"destination" : [ "obj-298", 0 ],
					"hidden" : 0,
					"midpoints" : [  ]
				}

			}
, 			{
				"patchline" : 				{
					"source" : [ "obj-230", 0 ],
					"destination" : [ "obj-296", 0 ],
					"hidden" : 0,
					"midpoints" : [  ]
				}

			}
, 			{
				"patchline" : 				{
					"source" : [ "obj-219", 0 ],
					"destination" : [ "obj-294", 0 ],
					"hidden" : 0,
					"midpoints" : [  ]
				}

			}
, 			{
				"patchline" : 				{
					"source" : [ "obj-207", 0 ],
					"destination" : [ "obj-292", 0 ],
					"hidden" : 0,
					"midpoints" : [  ]
				}

			}
, 			{
				"patchline" : 				{
					"source" : [ "obj-180", 0 ],
					"destination" : [ "obj-290", 0 ],
					"hidden" : 0,
					"midpoints" : [  ]
				}

			}
, 			{
				"patchline" : 				{
					"source" : [ "obj-176", 0 ],
					"destination" : [ "obj-288", 0 ],
					"hidden" : 0,
					"midpoints" : [  ]
				}

			}
, 			{
				"patchline" : 				{
					"source" : [ "obj-282", 0 ],
					"destination" : [ "obj-283", 0 ],
					"hidden" : 0,
					"midpoints" : [  ]
				}

			}
, 			{
				"patchline" : 				{
					"source" : [ "obj-278", 0 ],
					"destination" : [ "obj-286", 1 ],
					"hidden" : 0,
					"midpoints" : [  ]
				}

			}
, 			{
				"patchline" : 				{
					"source" : [ "obj-286", 0 ],
					"destination" : [ "obj-280", 0 ],
					"hidden" : 0,
					"midpoints" : [  ]
				}

			}
, 			{
				"patchline" : 				{
					"source" : [ "obj-286", 0 ],
					"destination" : [ "obj-281", 0 ],
					"hidden" : 0,
					"midpoints" : [  ]
				}

			}
, 			{
				"patchline" : 				{
					"source" : [ "obj-272", 0 ],
					"destination" : [ "obj-273", 0 ],
					"hidden" : 0,
					"midpoints" : [  ]
				}

			}
, 			{
				"patchline" : 				{
					"source" : [ "obj-268", 0 ],
					"destination" : [ "obj-276", 1 ],
					"hidden" : 0,
					"midpoints" : [  ]
				}

			}
, 			{
				"patchline" : 				{
					"source" : [ "obj-276", 0 ],
					"destination" : [ "obj-270", 0 ],
					"hidden" : 0,
					"midpoints" : [  ]
				}

			}
, 			{
				"patchline" : 				{
					"source" : [ "obj-276", 0 ],
					"destination" : [ "obj-271", 0 ],
					"hidden" : 0,
					"midpoints" : [  ]
				}

			}
, 			{
				"patchline" : 				{
					"source" : [ "obj-261", 0 ],
					"destination" : [ "obj-262", 0 ],
					"hidden" : 0,
					"midpoints" : [ 975.5, 172.0, 1020.0, 172.0, 1020.0, 148.0, 1030.5, 148.0 ]
				}

			}
, 			{
				"patchline" : 				{
					"source" : [ "obj-260", 0 ],
					"destination" : [ "obj-262", 0 ],
					"hidden" : 0,
					"midpoints" : [ 975.5, 208.0, 1015.5, 208.0, 1015.5, 143.0, 1030.5, 143.0 ]
				}

			}
, 			{
				"patchline" : 				{
					"source" : [ "obj-265", 0 ],
					"destination" : [ "obj-266", 0 ],
					"hidden" : 0,
					"midpoints" : [ 975.5, 99.0, 1014.0, 99.0, 1014.0, 75.0, 1027.5, 75.0 ]
				}

			}
, 			{
				"patchline" : 				{
					"source" : [ "obj-264", 0 ],
					"destination" : [ "obj-266", 0 ],
					"hidden" : 0,
					"midpoints" : [ 975.5, 135.0, 1016.5, 135.0, 1016.5, 70.0, 1027.5, 70.0 ]
				}

			}
, 			{
				"patchline" : 				{
					"source" : [ "obj-253", 0 ],
					"destination" : [ "obj-254", 0 ],
					"hidden" : 0,
					"midpoints" : [ 822.5, 174.0, 869.0, 174.0, 869.0, 150.0, 879.5, 150.0 ]
				}

			}
, 			{
				"patchline" : 				{
					"source" : [ "obj-252", 0 ],
					"destination" : [ "obj-254", 0 ],
					"hidden" : 0,
					"midpoints" : [ 822.5, 210.0, 864.5, 210.0, 864.5, 145.0, 879.5, 145.0 ]
				}

			}
, 			{
				"patchline" : 				{
					"source" : [ "obj-257", 0 ],
					"destination" : [ "obj-258", 0 ],
					"hidden" : 0,
					"midpoints" : [ 822.5, 101.0, 863.0, 101.0, 863.0, 77.0, 876.5, 77.0 ]
				}

			}
, 			{
				"patchline" : 				{
					"source" : [ "obj-256", 0 ],
					"destination" : [ "obj-258", 0 ],
					"hidden" : 0,
					"midpoints" : [ 822.5, 137.0, 865.5, 137.0, 865.5, 72.0, 876.5, 72.0 ]
				}

			}
, 			{
				"patchline" : 				{
					"source" : [ "obj-240", 0 ],
					"destination" : [ "obj-241", 0 ],
					"hidden" : 0,
					"midpoints" : [ 1104.5, 310.5, 1141.5, 310.5 ]
				}

			}
, 			{
				"patchline" : 				{
					"source" : [ "obj-230", 0 ],
					"destination" : [ "obj-231", 0 ],
					"hidden" : 0,
					"midpoints" : [ 984.5, 308.5, 1021.5, 308.5 ]
				}

			}
, 			{
				"patchline" : 				{
					"source" : [ "obj-219", 0 ],
					"destination" : [ "obj-220", 0 ],
					"hidden" : 0,
					"midpoints" : [ 860.5, 309.5, 897.5, 309.5 ]
				}

			}
, 			{
				"patchline" : 				{
					"source" : [ "obj-219", 0 ],
					"destination" : [ "obj-221", 0 ],
					"hidden" : 0,
					"midpoints" : [  ]
				}

			}
, 			{
				"patchline" : 				{
					"source" : [ "obj-207", 0 ],
					"destination" : [ "obj-208", 0 ],
					"hidden" : 0,
					"midpoints" : [ 741.5, 309.5, 778.5, 309.5 ]
				}

			}
, 			{
				"patchline" : 				{
					"source" : [ "obj-207", 0 ],
					"destination" : [ "obj-209", 0 ],
					"hidden" : 0,
					"midpoints" : [  ]
				}

			}
, 			{
				"patchline" : 				{
					"source" : [ "obj-249", 0 ],
					"destination" : [ "obj-244", 0 ],
					"hidden" : 0,
					"midpoints" : [  ]
				}

			}
, 			{
				"patchline" : 				{
					"source" : [ "obj-249", 0 ],
					"destination" : [ "obj-243", 0 ],
					"hidden" : 0,
					"midpoints" : [  ]
				}

			}
, 			{
				"patchline" : 				{
					"source" : [ "obj-241", 0 ],
					"destination" : [ "obj-249", 1 ],
					"hidden" : 0,
					"midpoints" : [  ]
				}

			}
, 			{
				"patchline" : 				{
					"source" : [ "obj-245", 0 ],
					"destination" : [ "obj-246", 0 ],
					"hidden" : 0,
					"midpoints" : [  ]
				}

			}
, 			{
				"patchline" : 				{
					"source" : [ "obj-239", 0 ],
					"destination" : [ "obj-234", 0 ],
					"hidden" : 0,
					"midpoints" : [  ]
				}

			}
, 			{
				"patchline" : 				{
					"source" : [ "obj-239", 0 ],
					"destination" : [ "obj-233", 0 ],
					"hidden" : 0,
					"midpoints" : [  ]
				}

			}
, 			{
				"patchline" : 				{
					"source" : [ "obj-231", 0 ],
					"destination" : [ "obj-239", 1 ],
					"hidden" : 0,
					"midpoints" : [  ]
				}

			}
, 			{
				"patchline" : 				{
					"source" : [ "obj-235", 0 ],
					"destination" : [ "obj-236", 0 ],
					"hidden" : 0,
					"midpoints" : [  ]
				}

			}
, 			{
				"patchline" : 				{
					"source" : [ "obj-225", 0 ],
					"destination" : [ "obj-226", 0 ],
					"hidden" : 0,
					"midpoints" : [  ]
				}

			}
, 			{
				"patchline" : 				{
					"source" : [ "obj-221", 0 ],
					"destination" : [ "obj-229", 0 ],
					"hidden" : 0,
					"midpoints" : [  ]
				}

			}
, 			{
				"patchline" : 				{
					"source" : [ "obj-220", 0 ],
					"destination" : [ "obj-229", 1 ],
					"hidden" : 0,
					"midpoints" : [  ]
				}

			}
, 			{
				"patchline" : 				{
					"source" : [ "obj-229", 0 ],
					"destination" : [ "obj-223", 0 ],
					"hidden" : 0,
					"midpoints" : [  ]
				}

			}
, 			{
				"patchline" : 				{
					"source" : [ "obj-229", 0 ],
					"destination" : [ "obj-224", 0 ],
					"hidden" : 0,
					"midpoints" : [  ]
				}

			}
, 			{
				"patchline" : 				{
					"source" : [ "obj-213", 0 ],
					"destination" : [ "obj-214", 0 ],
					"hidden" : 0,
					"midpoints" : [  ]
				}

			}
, 			{
				"patchline" : 				{
					"source" : [ "obj-209", 0 ],
					"destination" : [ "obj-217", 0 ],
					"hidden" : 0,
					"midpoints" : [  ]
				}

			}
, 			{
				"patchline" : 				{
					"source" : [ "obj-208", 0 ],
					"destination" : [ "obj-217", 1 ],
					"hidden" : 0,
					"midpoints" : [  ]
				}

			}
, 			{
				"patchline" : 				{
					"source" : [ "obj-217", 0 ],
					"destination" : [ "obj-211", 0 ],
					"hidden" : 0,
					"midpoints" : [  ]
				}

			}
, 			{
				"patchline" : 				{
					"source" : [ "obj-217", 0 ],
					"destination" : [ "obj-212", 0 ],
					"hidden" : 0,
					"midpoints" : [  ]
				}

			}
, 			{
				"patchline" : 				{
					"source" : [ "obj-189", 0 ],
					"destination" : [ "obj-188", 0 ],
					"hidden" : 0,
					"midpoints" : [  ]
				}

			}
, 			{
				"patchline" : 				{
					"source" : [ "obj-187", 0 ],
					"destination" : [ "obj-189", 0 ],
					"hidden" : 0,
					"midpoints" : [  ]
				}

			}
, 			{
				"patchline" : 				{
					"source" : [ "obj-185", 0 ],
					"destination" : [ "obj-189", 0 ],
					"hidden" : 0,
					"midpoints" : [  ]
				}

			}
, 			{
				"patchline" : 				{
					"source" : [ "obj-180", 0 ],
					"destination" : [ "obj-181", 0 ],
					"hidden" : 0,
					"midpoints" : [ 618.5, 310.5, 655.5, 310.5 ]
				}

			}
, 			{
				"patchline" : 				{
					"source" : [ "obj-180", 0 ],
					"destination" : [ "obj-182", 0 ],
					"hidden" : 0,
					"midpoints" : [  ]
				}

			}
, 			{
				"patchline" : 				{
					"source" : [ "obj-186", 0 ],
					"destination" : [ "obj-187", 0 ],
					"hidden" : 0,
					"midpoints" : [  ]
				}

			}
, 			{
				"patchline" : 				{
					"source" : [ "obj-182", 0 ],
					"destination" : [ "obj-190", 0 ],
					"hidden" : 0,
					"midpoints" : [  ]
				}

			}
, 			{
				"patchline" : 				{
					"source" : [ "obj-181", 0 ],
					"destination" : [ "obj-190", 1 ],
					"hidden" : 0,
					"midpoints" : [  ]
				}

			}
, 			{
				"patchline" : 				{
					"source" : [ "obj-190", 0 ],
					"destination" : [ "obj-184", 0 ],
					"hidden" : 0,
					"midpoints" : [  ]
				}

			}
, 			{
				"patchline" : 				{
					"source" : [ "obj-190", 0 ],
					"destination" : [ "obj-185", 0 ],
					"hidden" : 0,
					"midpoints" : [  ]
				}

			}
, 			{
				"patchline" : 				{
					"source" : [ "obj-176", 0 ],
					"destination" : [ "obj-157", 0 ],
					"hidden" : 0,
					"midpoints" : [ 489.5, 310.5, 526.5, 310.5 ]
				}

			}
, 			{
				"patchline" : 				{
					"source" : [ "obj-176", 0 ],
					"destination" : [ "obj-156", 0 ],
					"hidden" : 0,
					"midpoints" : [  ]
				}

			}
, 			{
				"patchline" : 				{
					"source" : [ "obj-197", 0 ],
					"destination" : [ "obj-161", 0 ],
					"hidden" : 0,
					"midpoints" : [  ]
				}

			}
, 			{
				"patchline" : 				{
					"source" : [ "obj-197", 0 ],
					"destination" : [ "obj-86", 0 ],
					"hidden" : 0,
					"midpoints" : [  ]
				}

			}
, 			{
				"patchline" : 				{
					"source" : [ "obj-157", 0 ],
					"destination" : [ "obj-197", 1 ],
					"hidden" : 0,
					"midpoints" : [  ]
				}

			}
, 			{
				"patchline" : 				{
					"source" : [ "obj-156", 0 ],
					"destination" : [ "obj-197", 0 ],
					"hidden" : 0,
					"midpoints" : [  ]
				}

			}
, 			{
				"patchline" : 				{
					"source" : [ "obj-64", 0 ],
					"destination" : [ "obj-65", 0 ],
					"hidden" : 0,
					"midpoints" : [ 666.5, 101.0, 708.0, 101.0, 708.0, 77.0, 721.5, 77.0 ]
				}

			}
, 			{
				"patchline" : 				{
					"source" : [ "obj-148", 0 ],
					"destination" : [ "obj-65", 0 ],
					"hidden" : 0,
					"midpoints" : [ 666.5, 137.0, 710.5, 137.0, 710.5, 72.0, 721.5, 72.0 ]
				}

			}
, 			{
				"patchline" : 				{
					"source" : [ "obj-56", 0 ],
					"destination" : [ "obj-60", 0 ],
					"hidden" : 0,
					"midpoints" : [ 509.5, 173.0, 555.0, 173.0, 555.0, 149.0, 568.5, 149.0 ]
				}

			}
, 			{
				"patchline" : 				{
					"source" : [ "obj-150", 0 ],
					"destination" : [ "obj-60", 0 ],
					"hidden" : 0,
					"midpoints" : [ 509.5, 209.0, 551.5, 209.0, 551.5, 144.0, 568.5, 144.0 ]
				}

			}
, 			{
				"patchline" : 				{
					"source" : [ "obj-152", 0 ],
					"destination" : [ "obj-199", 0 ],
					"hidden" : 0,
					"midpoints" : [ 506.5, 100.0, 551.0, 100.0, 551.0, 76.0, 567.5, 76.0 ]
				}

			}
, 			{
				"patchline" : 				{
					"source" : [ "obj-195", 0 ],
					"destination" : [ "obj-199", 0 ],
					"hidden" : 0,
					"midpoints" : [ 506.5, 136.0, 555.5, 136.0, 555.5, 71.0, 567.5, 71.0 ]
				}

			}
, 			{
				"patchline" : 				{
					"source" : [ "obj-145", 0 ],
					"destination" : [ "obj-146", 0 ],
					"hidden" : 0,
					"midpoints" : [ 666.5, 174.0, 714.0, 174.0, 714.0, 150.0, 724.5, 150.0 ]
				}

			}
, 			{
				"patchline" : 				{
					"source" : [ "obj-144", 0 ],
					"destination" : [ "obj-146", 0 ],
					"hidden" : 0,
					"midpoints" : [ 666.5, 210.0, 709.5, 210.0, 709.5, 145.0, 724.5, 145.0 ]
				}

			}
, 			{
				"patchline" : 				{
					"source" : [ "obj-82", 0 ],
					"destination" : [ "obj-81", 0 ],
					"hidden" : 0,
					"midpoints" : [  ]
				}

			}
, 			{
				"patchline" : 				{
					"source" : [ "obj-78", 0 ],
					"destination" : [ "obj-82", 0 ],
					"hidden" : 0,
					"midpoints" : [  ]
				}

			}
, 			{
				"patchline" : 				{
					"source" : [ "obj-161", 0 ],
					"destination" : [ "obj-82", 0 ],
					"hidden" : 0,
					"midpoints" : [  ]
				}

			}
, 			{
				"patchline" : 				{
					"source" : [ "obj-31", 0 ],
					"destination" : [ "obj-41", 0 ],
					"hidden" : 0,
					"midpoints" : [  ]
				}

			}
, 			{
				"patchline" : 				{
					"source" : [ "obj-14", 0 ],
					"destination" : [ "obj-12", 0 ],
					"hidden" : 0,
					"midpoints" : [  ]
				}

			}
, 			{
				"patchline" : 				{
					"source" : [ "obj-12", 0 ],
					"destination" : [ "obj-13", 0 ],
					"hidden" : 0,
					"midpoints" : [  ]
				}

			}
, 			{
				"patchline" : 				{
					"source" : [ "obj-101", 0 ],
					"destination" : [ "obj-102", 0 ],
					"hidden" : 0,
					"midpoints" : [ 73.283585, 232.067947, 65.21582, 232.067947 ]
				}

			}
, 			{
				"patchline" : 				{
					"source" : [ "obj-101", 1 ],
					"destination" : [ "obj-85", 0 ],
					"hidden" : 0,
					"midpoints" : [  ]
				}

			}
, 			{
				"patchline" : 				{
					"source" : [ "obj-102", 0 ],
					"destination" : [ "obj-83", 0 ],
					"hidden" : 0,
					"midpoints" : [ 65.21582, 290.458496, 90.553894, 290.458496 ]
				}

			}
, 			{
				"patchline" : 				{
					"source" : [ "obj-110", 0 ],
					"destination" : [ "obj-111", 0 ],
					"hidden" : 0,
					"midpoints" : [  ]
				}

			}
, 			{
				"patchline" : 				{
					"source" : [ "obj-112", 0 ],
					"destination" : [ "obj-110", 0 ],
					"hidden" : 0,
					"midpoints" : [  ]
				}

			}
, 			{
				"patchline" : 				{
					"source" : [ "obj-15", 0 ],
					"destination" : [ "obj-31", 0 ],
					"hidden" : 0,
					"midpoints" : [  ]
				}

			}
, 			{
				"patchline" : 				{
					"source" : [ "obj-62", 1 ],
					"destination" : [ "obj-83", 0 ],
					"hidden" : 0,
					"midpoints" : [ 124.553894, 269.375153, 90.553894, 269.375153 ]
				}

			}
, 			{
				"patchline" : 				{
					"source" : [ "obj-62", 0 ],
					"destination" : [ "obj-83", 0 ],
					"hidden" : 0,
					"midpoints" : [  ]
				}

			}
, 			{
				"patchline" : 				{
					"source" : [ "obj-73", 0 ],
					"destination" : [ "obj-62", 0 ],
					"hidden" : 0,
					"midpoints" : [  ]
				}

			}
, 			{
				"patchline" : 				{
					"source" : [ "obj-83", 0 ],
					"destination" : [ "obj-10", 0 ],
					"hidden" : 0,
					"midpoints" : [  ]
				}

			}
, 			{
				"patchline" : 				{
					"source" : [ "obj-85", 0 ],
					"destination" : [ "obj-73", 0 ],
					"hidden" : 0,
					"midpoints" : [  ]
				}

			}
, 			{
				"patchline" : 				{
					"source" : [ "obj-85", 1 ],
					"destination" : [ "obj-83", 0 ],
					"hidden" : 0,
					"midpoints" : [ 149.553894, 270.873413, 90.553894, 270.873413 ]
				}

			}
, 			{
				"patchline" : 				{
					"source" : [ "obj-31", 0 ],
					"destination" : [ "obj-6", 0 ],
					"hidden" : 0,
					"midpoints" : [  ]
				}

			}
, 			{
				"patchline" : 				{
					"source" : [ "obj-4", 0 ],
					"destination" : [ "obj-7", 0 ],
					"hidden" : 0,
					"midpoints" : [  ]
				}

			}
, 			{
				"patchline" : 				{
					"source" : [ "obj-8", 0 ],
					"destination" : [ "obj-4", 0 ],
					"hidden" : 0,
					"midpoints" : [  ]
				}

			}
, 			{
				"patchline" : 				{
					"source" : [ "obj-230", 0 ],
					"destination" : [ "obj-17", 0 ],
					"hidden" : 0,
					"midpoints" : [  ]
				}

			}
, 			{
				"patchline" : 				{
					"source" : [ "obj-17", 0 ],
					"destination" : [ "obj-239", 0 ],
					"hidden" : 0,
					"midpoints" : [  ]
				}

			}
, 			{
				"patchline" : 				{
					"source" : [ "obj-240", 0 ],
					"destination" : [ "obj-18", 0 ],
					"hidden" : 0,
					"midpoints" : [  ]
				}

			}
, 			{
				"patchline" : 				{
					"source" : [ "obj-18", 0 ],
					"destination" : [ "obj-249", 0 ],
					"hidden" : 0,
					"midpoints" : [  ]
				}

			}
, 			{
				"patchline" : 				{
					"source" : [ "obj-277", 0 ],
					"destination" : [ "obj-19", 0 ],
					"hidden" : 0,
					"midpoints" : [  ]
				}

			}
, 			{
				"patchline" : 				{
					"source" : [ "obj-19", 0 ],
					"destination" : [ "obj-286", 0 ],
					"hidden" : 0,
					"midpoints" : [  ]
				}

			}
, 			{
				"patchline" : 				{
					"source" : [ "obj-267", 0 ],
					"destination" : [ "obj-20", 0 ],
					"hidden" : 0,
					"midpoints" : [  ]
				}

			}
, 			{
				"patchline" : 				{
					"source" : [ "obj-20", 0 ],
					"destination" : [ "obj-276", 0 ],
					"hidden" : 0,
					"midpoints" : [  ]
				}

			}
, 			{
				"patchline" : 				{
					"source" : [ "obj-76", 0 ],
					"destination" : [ "obj-78", 0 ],
					"hidden" : 0,
					"midpoints" : [  ]
				}

			}
, 			{
				"patchline" : 				{
					"source" : [ "obj-87", 0 ],
					"destination" : [ "obj-21", 0 ],
					"hidden" : 0,
					"midpoints" : [  ]
				}

			}
, 			{
				"patchline" : 				{
					"source" : [ "obj-21", 0 ],
					"destination" : [ "obj-76", 0 ],
					"hidden" : 0,
					"midpoints" : [  ]
				}

			}
, 			{
				"patchline" : 				{
					"source" : [ "obj-23", 0 ],
					"destination" : [ "obj-22", 0 ],
					"hidden" : 0,
					"midpoints" : [  ]
				}

			}
, 			{
				"patchline" : 				{
					"source" : [ "obj-22", 0 ],
					"destination" : [ "obj-186", 0 ],
					"hidden" : 0,
					"midpoints" : [  ]
				}

			}
, 			{
				"patchline" : 				{
					"source" : [ "obj-25", 0 ],
					"destination" : [ "obj-24", 0 ],
					"hidden" : 0,
					"midpoints" : [  ]
				}

			}
, 			{
				"patchline" : 				{
					"source" : [ "obj-24", 0 ],
					"destination" : [ "obj-213", 0 ],
					"hidden" : 0,
					"midpoints" : [  ]
				}

			}
, 			{
				"patchline" : 				{
					"source" : [ "obj-34", 0 ],
					"destination" : [ "obj-32", 0 ],
					"hidden" : 0,
					"midpoints" : [  ]
				}

			}
, 			{
				"patchline" : 				{
					"source" : [ "obj-32", 0 ],
					"destination" : [ "obj-225", 0 ],
					"hidden" : 0,
					"midpoints" : [  ]
				}

			}
, 			{
				"patchline" : 				{
					"source" : [ "obj-38", 0 ],
					"destination" : [ "obj-36", 0 ],
					"hidden" : 0,
					"midpoints" : [  ]
				}

			}
, 			{
				"patchline" : 				{
					"source" : [ "obj-36", 0 ],
					"destination" : [ "obj-235", 0 ],
					"hidden" : 0,
					"midpoints" : [  ]
				}

			}
, 			{
				"patchline" : 				{
					"source" : [ "obj-45", 0 ],
					"destination" : [ "obj-39", 0 ],
					"hidden" : 0,
					"midpoints" : [  ]
				}

			}
, 			{
				"patchline" : 				{
					"source" : [ "obj-39", 0 ],
					"destination" : [ "obj-245", 0 ],
					"hidden" : 0,
					"midpoints" : [  ]
				}

			}
, 			{
				"patchline" : 				{
					"source" : [ "obj-47", 0 ],
					"destination" : [ "obj-46", 0 ],
					"hidden" : 0,
					"midpoints" : [  ]
				}

			}
, 			{
				"patchline" : 				{
					"source" : [ "obj-46", 0 ],
					"destination" : [ "obj-282", 0 ],
					"hidden" : 0,
					"midpoints" : [  ]
				}

			}
, 			{
				"patchline" : 				{
					"source" : [ "obj-49", 0 ],
					"destination" : [ "obj-48", 0 ],
					"hidden" : 0,
					"midpoints" : [  ]
				}

			}
, 			{
				"patchline" : 				{
					"source" : [ "obj-48", 0 ],
					"destination" : [ "obj-272", 0 ],
					"hidden" : 0,
					"midpoints" : [  ]
				}

			}
 ]
	}

}
